# This file uses centimeters as units for non-parametric coordinates.

mtllib pupitre.mtl
g default
v -24.090349 10.383614 30.481702
v 24.090349 10.383614 30.481702
v -24.090349 16.554054 30.481702
v 24.090349 16.554054 30.481702
v -24.090349 16.554054 -26.209460
v 24.090349 16.554054 -26.209460
v -24.090349 10.383614 -26.209460
v 24.090349 10.383614 -26.209460
v -13.790348 16.554054 20.181653
v 13.790348 16.554054 20.181653
v 13.790348 16.554054 -15.909411
v -13.790348 16.554054 -15.909411
v -12.507048 106.310761 16.578382
v 12.507048 117.929261 16.578382
v 12.507048 117.929261 -12.306140
v -12.507048 106.310761 -12.306140
v -24.090349 4.346818 -26.209460
v 24.090349 4.346818 -26.209460
v 24.090349 4.346818 30.481702
v -24.090349 4.346818 30.481702
v -28.890348 10.383614 -31.009509
v 28.890348 10.383614 -31.009509
v 28.890348 4.346818 -31.009509
v -28.890348 4.346818 -31.009509
v 28.890348 10.383614 35.281751
v 28.890348 4.346818 35.281751
v -28.890348 10.383614 35.281751
v -28.890348 4.346818 35.281751
vt 0.274395 0.915031
vt 0.485924 0.915031
vt 0.485924 0.942121
vt 0.274395 0.942121
vt 0.867727 0.007812
vt 0.867727 0.128901
vt 0.740915 0.128901
vt 0.740915 0.007812
vt 0.220718 0.968280
vt 0.009189 0.968280
vt 0.009189 0.941189
vt 0.220718 0.941189
vt 0.584266 0.431839
vt 0.969075 0.971494
vt 0.865320 0.681592
vt 0.499849 0.950421
vt 0.572079 0.879055
vt 0.820972 0.879055
vt 0.820972 0.906145
vt 0.572079 0.906145
vt 0.309939 0.879055
vt 0.558832 0.879055
vt 0.558832 0.906145
vt 0.309939 0.906145
vt 0.643168 0.533468
vt 0.854697 0.533468
vt 0.809476 0.578688
vt 0.429902 0.412294
vt 0.688388 0.578688
vt 0.854697 0.782361
vt 0.274395 0.007812
vt 0.809476 0.737140
vt 0.643168 0.782361
vt 0.607623 0.089214
vt 0.688388 0.737140
vt 0.443231 0.007812
vt 0.550979 0.410800
vt 0.550849 0.856194
vt 0.432847 0.007812
vt 0.417027 0.452919
vt 0.728710 0.089362
vt 0.722602 0.483740
vt 0.601683 0.007812
vt 0.585863 0.401914
vt 0.854233 0.870169
vt 0.028886 0.277779
vt 0.298853 0.896914
vt 0.584266 0.680732
vt 0.240415 0.277779
vt 0.261489 0.932303
vt 0.261489 0.298853
vt 0.563193 0.870169
vt 0.007812 0.298853
vt 0.240415 0.028886
vt 0.261489 0.007812
vt 0.028886 0.028886
vt 0.459050 0.401914
vt 0.612706 0.534579
vt 0.290215 0.452919
vt 0.440394 0.806580
vt 0.825755 0.941535
vt 0.711378 0.950421
vt 0.865320 0.432699
vt 0.757545 0.971494
vt 0.007812 0.534141
vt 0.219342 0.534141
vt 0.219342 0.783034
vt 0.007812 0.783034
vt 0.572079 0.941535
vt 0.007812 0.007812
vt 0.007812 0.932303
vt 0.563193 0.843665
vt 0.007812 0.905800
vt 0.563193 0.701806
vt 0.563193 0.410766
vt 0.007812 0.896914
vt 0.261489 0.905800
vt 0.007812 0.870410
vt 0.732452 0.971494
vt 0.478775 0.971494
vt 0.572079 0.915031
vt 0.298853 0.870410
vt 0.736472 0.950421
vt 0.854233 0.843665
vt 0.990148 0.950421
vt 0.825755 0.915031
vt 0.886393 0.411625
vt 0.886393 0.702665
vn 0.000000 0.000000 1.000000
vn 0.000000 0.000000 1.000000
vn 0.000000 0.000000 1.000000
vn 0.000000 0.000000 1.000000
vn -0.421255 0.906942 0.000000
vn -0.421255 0.906942 0.000000
vn -0.421255 0.906942 0.000000
vn -0.421255 0.906942 0.000000
vn 0.000000 0.000000 -1.000000
vn 0.000000 0.000000 -1.000000
vn 0.000000 0.000000 -1.000000
vn 0.000000 0.000000 -1.000000
vn 0.000000 -1.000000 0.000000
vn 0.000000 -1.000000 0.000000
vn 0.000000 -1.000000 -0.000000
vn 0.000000 -1.000000 -0.000000
vn 1.000000 0.000000 0.000000
vn 1.000000 0.000000 0.000000
vn 1.000000 0.000000 0.000000
vn 1.000000 0.000000 0.000000
vn -1.000000 0.000000 0.000000
vn -1.000000 0.000000 0.000000
vn -1.000000 0.000000 0.000000
vn -1.000000 0.000000 0.000000
vn 0.000000 1.000000 0.000000
vn 0.000000 1.000000 0.000000
vn 0.000000 1.000000 0.000000
vn 0.000000 1.000000 0.000000
vn 0.000000 1.000000 -0.000000
vn 0.000000 1.000000 -0.000000
vn 0.000000 1.000000 -0.000000
vn 0.000000 1.000000 -0.000000
vn -0.008322 0.037676 0.999255
vn -0.008322 0.037676 0.999255
vn -0.008322 0.037676 0.999255
vn -0.008322 0.037676 0.999255
vn 0.999920 0.012658 0.000000
vn 0.999920 0.012658 0.000000
vn 0.999920 0.012658 0.000000
vn 0.999920 0.012658 0.000000
vn -0.008325 0.037676 -0.999255
vn -0.008325 0.037676 -0.999255
vn -0.008325 0.037676 -0.999255
vn -0.008325 0.037676 -0.999255
vn -0.999898 0.014296 0.000000
vn -0.999898 0.014296 0.000000
vn -0.999898 0.014296 0.000000
vn -0.999898 0.014296 0.000000
vn 0.000000 0.000000 -1.000000
vn 0.000000 0.000000 -1.000000
vn 0.000000 0.000000 -1.000000
vn 0.000000 0.000000 -1.000000
vn 1.000000 0.000000 0.000000
vn 1.000000 0.000000 0.000000
vn 1.000000 0.000000 0.000000
vn 1.000000 0.000000 0.000000
vn 0.000000 0.000000 1.000000
vn 0.000000 0.000000 1.000000
vn 0.000000 0.000000 1.000000
vn 0.000000 0.000000 1.000000
vn -1.000000 0.000000 0.000000
vn -1.000000 0.000000 0.000000
vn -1.000000 0.000000 0.000000
vn -1.000000 0.000000 0.000000
vn 0.000000 1.000000 0.000000
vn 0.000000 1.000000 0.000000
vn 0.000000 1.000000 0.000000
vn 0.000000 1.000000 0.000000
vn 0.000000 -1.000000 0.000000
vn 0.000000 -1.000000 0.000000
vn 0.000000 1.000000 -0.000000
vn 0.000000 1.000000 -0.000000
vn 0.000000 -1.000000 -0.000000
vn 0.000000 1.000000 -0.000000
vn 0.000000 1.000000 -0.000000
vn 0.000000 -1.000000 -0.000000
s off
g polySurface2 PROPS_Pupitre
usemtl blinn1SG
f 1/1/1 2/2/2 4/3/3 3/4/4
f 13/5/5 14/6/6 15/7/7 16/8/8
f 5/9/9 6/10/10 8/11/11 7/12/12
s 1
f 17/65/13 18/66/14 19/67/15 20/68/16
s off
f 2/17/17 8/18/18 6/19/19 4/20/20
f 7/21/21 1/22/22 3/23/23 5/24/24
s 2
f 3/25/25 4/26/26 10/27/27 9/29/28
f 4/26/26 6/30/29 11/32/30 10/27/27
f 6/30/29 5/33/31 12/35/32 11/32/30
f 5/33/31 3/25/25 9/29/28 12/35/32
s off
f 9/28/33 10/37/34 14/38/35 13/60/36
f 10/31/37 11/39/38 15/40/39 14/59/40
f 11/34/41 12/41/42 16/42/43 15/58/44
f 12/36/45 9/43/46 13/44/47 16/57/48
f 21/61/49 22/69/50 23/81/51 24/86/52
f 22/47/53 25/76/54 26/78/55 23/82/56
f 25/50/57 27/71/58 28/73/59 26/77/60
f 27/45/61 21/52/62 24/72/63 28/84/64
s 3
f 7/46/65 8/49/66 22/51/67 21/53/68
s 1
f 18/14/14 17/64/13 24/83/69 23/85/70
s 3
f 8/49/66 2/54/71 25/55/72 22/51/67
s 1
f 19/15/15 18/63/14 23/87/70 26/88/73
s 3
f 2/54/71 1/56/74 27/70/75 25/55/72
s 1
f 20/16/16 19/62/15 26/79/73 28/80/76
s 3
f 1/56/74 7/46/65 21/53/68 27/70/75
s 1
f 17/13/13 20/48/16 28/74/76 24/75/69
g default
v -23.216085 100.772980 30.840467
v 21.557457 121.985596 30.840467
v -25.996458 106.641526 30.840467
v 18.777081 127.854149 30.840467
v -25.996458 106.641526 -26.568225
v 18.777081 127.854149 -26.568225
v -23.216085 100.772980 -26.568225
v 21.557457 121.985596 -26.568225
v -16.587406 103.913491 30.840467
v -19.367781 109.782036 30.840467
v -19.367781 109.782036 -26.568225
v -16.587406 103.913491 -26.568225
v -27.461403 109.733597 30.840467
v -20.832729 112.874108 30.840467
v -20.832729 112.874108 -26.568225
v -27.461403 109.733597 -26.568225
vt 0.082455 0.037784
vt 0.082446 0.069987
vt 0.053936 0.069979
vt 0.053944 0.037776
vt 0.259856 0.829321
vt 0.007812 0.977166
vt 0.429717 0.820374
vt 0.563193 0.791247
vt 0.397514 0.820383
vt 0.397506 0.791873
vt 0.429709 0.791864
vt 0.212200 0.820435
vt 0.259856 0.307739
vt 0.259856 0.339942
vt 0.007813 0.339942
vt 0.007813 0.307739
vt 0.092230 0.037772
vt 0.177000 0.037772
vt 0.177000 0.122541
vt 0.092230 0.122541
vt 0.815236 0.791247
vt 0.815236 0.819757
vt 0.563193 0.819757
vt 0.082394 0.255301
vt 0.053884 0.255293
vt 0.736472 0.402743
vt 0.736472 0.168599
vt 0.935951 0.168599
vt 0.935951 0.402743
vt 0.212192 0.791925
vt 0.429721 0.835396
vt 0.259856 0.525255
vt 0.007812 0.525255
vt 0.259856 0.977166
vt 0.038914 0.069975
vt 0.815236 0.834779
vt 0.397518 0.835405
vt 0.259856 0.861524
vt 0.259856 0.992188
vt 0.007812 0.861524
vt 0.038923 0.037772
vt 0.007812 0.829321
vt 0.007812 0.992188
vt 0.563193 0.834779
vn 0.000010 0.000000 1.000000
vn 0.000002 0.000000 1.000000
vn 0.000001 0.000000 1.000000
vn 0.000007 0.000000 1.000000
vn -0.428154 0.903706 0.000000
vn -0.428154 0.903706 0.000000
vn -0.428154 0.903706 0.000000
vn -0.428154 0.903706 0.000000
vn 0.000000 0.000000 -1.000000
vn 0.000000 0.000000 -1.000000
vn 0.000000 0.000000 -1.000000
vn 0.000000 0.000000 -1.000000
vn 0.428154 -0.903706 0.000000
vn 0.428154 -0.903706 0.000000
vn 0.428154 -0.903706 0.000000
vn 0.428154 -0.903706 0.000000
vn 0.903706 0.428154 0.000000
vn 0.903706 0.428154 0.000000
vn 0.903706 0.428154 0.000000
vn 0.903706 0.428154 0.000000
vn -0.903706 -0.428154 0.000000
vn -0.903706 -0.428154 0.000000
vn -0.903706 -0.428154 0.000000
vn -0.903706 -0.428154 0.000000
vn 0.000000 0.000000 1.000000
vn 0.000000 0.000000 1.000000
vn -0.428154 0.903706 0.000000
vn -0.428154 0.903706 0.000000
vn -0.428154 0.903706 0.000000
vn -0.428154 0.903706 0.000000
vn 0.000000 0.000000 -1.000000
vn 0.000000 0.000000 -1.000000
vn 0.428154 -0.903706 0.000000
vn 0.428154 -0.903706 0.000000
vn 0.000000 0.000000 1.000000
vn 0.000000 0.000000 1.000000
vn 0.903706 0.428154 0.000000
vn 0.903706 0.428154 0.000000
vn 0.903706 0.428154 0.000000
vn 0.903706 0.428154 0.000000
vn 0.000000 0.000000 -1.000000
vn 0.000000 0.000000 -1.000000
vn -0.903706 -0.428153 0.000000
vn -0.903706 -0.428153 0.000000
s 1
g PROPS_Pupitre polySurface1
usemtl blinn1SG
f 29/89/77 37/90/78 38/91/79 31/92/80
s off
f 41/93/81 42/126/82 43/128/83 44/130/84
s 2
f 33/95/85 39/97/86 40/98/87 35/99/88
s 3
f 35/101/89 40/102/90 37/103/91 29/104/92
s off
f 30/105/93 36/106/94 34/107/95 32/108/96
s 4
f 35/96/97 29/109/98 31/110/99 33/111/100
s 1
f 38/91/79 37/90/78 30/112/101 32/113/102
s off
f 39/114/103 38/115/104 32/116/105 34/117/106
s 2
f 40/98/87 39/97/86 34/100/107 36/118/108
s 3
f 37/103/91 40/102/90 36/120/109 30/121/110
s 1
f 31/92/80 38/91/79 42/123/111 41/129/112
s off
f 38/94/113 39/122/114 43/127/115 42/131/116
s 2
f 39/97/86 33/95/85 44/119/117 43/125/118
s 4
f 33/111/100 31/110/99 41/124/119 44/132/120
