# This file uses centimeters as units for non-parametric coordinates.

mtllib props_grand_porte.mtl
g default
v -16.522984 0.121063 155.298294
v 16.522984 0.121063 155.298294
v 16.522984 318.099609 155.298294
v -16.522984 318.099609 155.298294
v -16.522984 0.121078 78.000832
v -16.522984 382.582214 78.000832
v 16.522984 0.121078 78.000832
v 16.522984 382.582214 78.000832
v -16.522984 0.121078 0.000000
v -16.522984 396.252502 0.000000
v 16.522984 0.121078 0.000000
v 16.522984 149.924500 0.000000
v 16.522984 157.310608 12.738855
v 16.522984 174.673218 21.462013
v 16.522984 193.001709 17.845556
v 16.522984 200.439117 0.000000
v 16.522984 396.252502 0.000000
v -16.522984 0.121078 -80.028557
v -16.522984 381.488647 -80.028557
v 16.522984 0.121078 -80.028557
v 16.522984 200.570267 -0.314666
v 16.522984 193.001709 -17.845556
v 16.522984 174.673218 -21.462013
v 16.522984 157.310608 -12.738855
v 16.522984 149.742050 -0.314666
v 16.522984 381.488647 -80.028557
v -16.522984 0.121063 -155.298294
v -16.522984 318.099609 -155.298294
v 16.522984 0.121063 -155.298294
v 16.522984 318.099609 -155.298294
v 2.215639 157.310608 12.738855
v 2.215639 174.673218 21.462013
v 2.215639 193.001709 17.845556
v -0.097129 174.468384 -0.378434
v -0.097129 149.742050 -0.314666
v -0.097129 200.570267 -0.314666
v 2.215639 157.310608 -12.738855
v 2.215639 193.001709 -17.845556
v 2.215639 174.673218 -21.462013
v 16.522984 190.269043 -80.028557
v 16.522984 186.961761 -155.298294
v -16.522984 189.451859 -155.298294
v -16.522984 188.748138 -80.028557
v -16.522984 187.999878 0.000000
v -16.522984 187.270782 78.000832
v -16.522984 186.547745 155.298309
v 16.522984 190.312607 155.298294
v 16.522984 191.824753 78.000832
v 16.522984 175.577484 78.000832
v 16.522984 175.602432 155.298294
v -16.522984 168.439514 155.298309
v -16.522984 168.282013 78.000832
v -16.522984 168.122864 0.000000
v -16.522984 167.959747 -80.028557
v -16.522984 167.806229 -155.298294
v 16.522984 173.379562 -155.298294
v 16.522984 174.107117 -80.028557
v 16.522984 175.560608 25.427534
v 16.522984 157.718475 78.000832
v 16.522984 158.201706 155.298294
v -16.522984 150.947357 155.298309
v -16.522984 150.000061 78.000832
v -16.522984 149.044067 0.000000
v -16.522984 148.063324 -80.028557
v -16.522984 147.140717 -155.298294
v 16.522984 145.386368 -155.298294
v 16.522984 151.682236 -80.028564
vt 0.500417 0.058603
vt 0.500417 0.007812
vt 0.547567 0.514134
vt 0.500417 0.514134
vt 0.394705 0.602891
vt 0.394705 0.058603
vt 0.394705 0.007812
vt 0.657671 0.618722
vt 0.277686 0.602891
vt 0.277686 0.058603
vt 0.771471 0.058603
vt 0.767284 0.618722
vt 0.160086 0.602891
vt 0.160086 0.058603
vt 0.883839 0.058603
vt 0.883839 0.618722
vt 0.054600 0.517598
vt 0.054600 0.058603
vt 0.007813 0.058603
vt 0.007812 0.517598
vt 0.745370 0.281049
vt 0.509510 0.029121
vt 0.524159 0.583743
vt 0.688750 0.007812
vt 0.529161 0.609923
vt 0.662004 0.007812
vt 0.794300 0.286898
vt 0.551939 0.029121
vt 0.556162 0.547652
vt 0.531079 0.007812
vt 0.769629 0.343051
vt 0.633805 0.029121
vt 0.580715 0.608169
vt 0.606502 0.007812
vt 0.794300 0.311990
vt 0.585943 0.581464
vt 0.556150 0.582961
vt 0.771471 0.281049
vt 0.634532 0.007812
vt 0.555947 0.620604
vt 0.662004 0.029121
vt 0.536786 0.558451
vt 0.531079 0.029121
vt 0.606502 0.029121
vt 0.579757 0.029121
vt 0.573337 0.557006
vt 0.688750 0.029121
vt 0.770584 0.281049
vt 0.530797 0.007812
vt 0.767284 0.343051
vt 0.633805 0.007812
vt 0.745370 0.343051
vt 0.716567 0.007812
vt 0.579757 0.007812
vt 0.794300 0.343051
vt 0.551939 0.007812
vt 0.745370 0.311060
vt 0.509510 0.007812
vt 0.716567 0.029121
vt 0.992188 0.520469
vt 0.034186 0.558429
vt 0.160086 0.647771
vt 0.054600 0.007813
vt 0.992188 0.058603
vt 0.160086 0.007812
vt 0.277686 0.647771
vt 0.277686 0.007813
vt 0.394705 0.647771
vt 0.657671 0.058603
vt 0.523130 0.555236
vt 0.547567 0.058603
vt 0.883839 0.337875
vt 0.992188 0.329991
vt 0.007813 0.328303
vt 0.054600 0.331898
vt 0.160086 0.327812
vt 0.277686 0.316750
vt 0.394705 0.324939
vt 0.500417 0.325675
vt 0.547567 0.331068
vt 0.657671 0.339355
vt 0.657671 0.315561
vt 0.547567 0.309994
vt 0.500417 0.299733
vt 0.394705 0.297916
vt 0.277686 0.289439
vt 0.160086 0.298142
vt 0.054600 0.300653
vt 0.992188 0.310262
vt 0.007813 0.308698
vt 0.883839 0.314138
vt 0.739219 0.312582
vt 0.657671 0.289406
vt 0.547567 0.285066
vt 0.500417 0.274674
vt 0.394705 0.271899
vt 0.277686 0.263224
vt 0.160086 0.269746
vt 0.054600 0.270822
vt 0.992188 0.269602
vt 0.007813 0.268290
vt 0.883839 0.281202
vn 0.000000 0.000000 1.000000
vn 0.000000 0.000000 1.000000
vn 0.000000 0.000000 1.000000
vn 0.000000 0.000000 1.000000
vn -1.000000 0.000000 0.000000
vn -1.000000 0.000000 0.000000
vn -1.000000 0.000000 0.000000
vn -1.000000 0.000000 0.000000
vn 0.000000 -1.000000 -0.000000
vn 0.000000 -1.000000 -0.000000
vn 0.000000 -1.000000 -0.000000
vn 0.000000 -1.000000 -0.000000
vn 1.000000 0.000000 0.000000
vn 1.000000 -0.000000 0.000000
vn 1.000000 -0.000000 0.000000
vn 1.000000 0.000000 0.000000
vn 0.000000 0.767889 0.640583
vn 0.000000 0.893265 0.449530
vn 0.000000 0.893265 0.449530
vn 0.000000 0.767889 0.640583
vn -1.000000 0.000000 0.000000
vn -1.000000 0.000000 0.000000
vn 0.000000 -1.000000 0.000000
vn 0.000000 -1.000000 0.000000
vn 0.000000 0.999976 -0.006920
vn 0.000000 0.999976 -0.006920
vn -1.000000 0.000000 0.000000
vn -1.000000 0.000000 0.000000
vn 0.000000 -1.000000 0.000000
vn 0.000000 -1.000000 0.000000
vn 0.000000 0.893265 -0.449530
vn 0.000000 0.893265 -0.449530
vn -1.000000 0.000000 0.000000
vn -1.000000 0.000000 0.000000
vn 0.000000 -1.000000 0.000000
vn 0.000000 -1.000000 0.000000
vn 1.000000 -0.000000 0.000000
vn 1.000000 0.000000 0.000000
vn 1.000000 0.000000 0.000000
vn 1.000000 -0.000000 0.000000
vn 0.000000 0.764891 -0.644160
vn 0.000000 0.764891 -0.644160
vn -0.000000 0.000000 -1.000000
vn -0.000000 0.000000 -1.000000
vn -0.000000 0.000000 -1.000000
vn -0.000000 0.000000 -1.000000
vn -0.000000 0.448936 -0.893564
vn 0.000000 0.448936 -0.893564
vn 0.000000 0.448936 -0.893564
vn -0.000000 0.134968 -0.990850
vn -0.000000 0.134968 -0.990850
vn 0.000000 -0.193581 -0.981084
vn 0.000000 -0.193581 -0.981084
vn 0.000000 -0.193581 -0.981084
vn 0.000000 0.854015 0.520248
vn 0.000000 0.854015 0.520248
vn 0.000000 0.854015 0.520248
vn 0.000000 0.999941 0.010850
vn 0.000000 -0.999980 0.006339
vn 0.000000 -0.918093 0.396365
vn 0.000000 -0.918093 0.396365
vn 0.000000 -0.918093 0.396365
vn 0.000000 0.134968 0.990850
vn 0.000000 0.448936 0.893564
vn 0.000000 0.448936 0.893564
vn 0.000000 0.448936 0.893564
vn 0.000000 -0.193581 0.981084
vn 0.000000 -0.193581 0.981084
vn 0.000000 -0.193581 0.981084
vn 0.000000 0.134968 0.990850
vn 0.999566 0.029393 -0.001765
vn 0.999970 0.007758 0.000205
vn 0.992174 0.005308 -0.124748
vn 0.990090 0.028300 -0.137550
vn 0.999952 -0.009724 -0.000878
vn 0.993140 -0.009320 -0.116559
vn 0.989196 0.029959 0.143502
vn 0.991547 0.005468 0.129630
vn 0.992625 -0.010007 0.120812
vn 1.000000 0.000000 0.000000
vn 1.000000 0.000000 0.000000
vn 1.000000 -0.000000 0.000000
vn 1.000000 0.000000 0.000000
vn 1.000000 -0.000000 0.000000
vn 1.000000 0.000000 0.000000
vn 1.000000 0.000000 0.000000
vn -0.000000 0.999999 -0.001508
vn 0.000000 0.999941 0.010850
vn -0.000000 0.865103 -0.501595
vn -0.000000 0.865103 -0.501595
vn -0.000000 0.865103 -0.501595
vn 0.000000 -0.923045 -0.384693
vn -0.000000 -0.923045 -0.384693
vn -0.000000 -0.923045 -0.384693
vn 0.000000 -0.999980 0.006339
vn 0.000000 -1.000000 -0.000437
vn 1.000000 -0.000000 0.000000
vn 1.000000 -0.000000 0.000000
vn 1.000000 0.000000 0.000000
vn 1.000000 0.000000 0.000000
vn 1.000000 0.000000 0.000000
vn 1.000000 0.000000 0.000000
vn 1.000000 -0.000000 0.000000
vn 1.000000 -0.000000 0.000000
vn 0.000000 0.000000 -1.000000
vn 0.000000 0.000000 -1.000000
vn 0.000000 0.000000 -1.000000
vn 0.000000 0.000000 -1.000000
vn -1.000000 0.000000 0.000000
vn -1.000000 0.000000 0.000000
vn -1.000000 0.000000 0.000000
vn -1.000000 0.000000 0.000000
vn -1.000000 0.000000 0.000000
vn -1.000000 0.000000 0.000000
vn -1.000000 0.000000 0.000000
vn -1.000000 0.000000 0.000000
vn -1.000000 0.000000 0.000000
vn -1.000000 0.000000 0.000000
vn 0.000000 -0.000000 1.000000
vn 0.000000 -0.000000 1.000000
vn 0.000000 -0.000000 1.000000
vn 0.000000 -0.000000 1.000000
vn 1.000000 0.000000 0.000000
vn 1.000000 0.000000 0.000000
vn 1.000000 0.000000 0.000000
vn 1.000000 0.000000 0.000000
vn 1.000000 0.000000 0.000000
vn 1.000000 0.000000 0.000000
vn 1.000000 0.000000 0.000000
vn 1.000000 0.000000 0.000000
vn 1.000000 0.000000 0.000000
vn 1.000000 0.000000 0.000000
vn 1.000000 0.000000 0.000000
vn 0.000000 0.000000 1.000000
vn 0.000000 0.000000 1.000000
vn -1.000000 0.000000 0.000000
vn -1.000000 0.000000 0.000000
vn -1.000000 0.000000 0.000000
vn -1.000000 0.000000 0.000000
vn -1.000000 0.000000 0.000000
vn 0.000000 0.000000 -1.000000
vn 0.000000 0.000000 -1.000000
vn 1.000000 0.000000 0.000000
vn 1.000000 0.000000 0.000000
vn 1.000000 0.000000 0.000000
s 1
g door_mask
usemtl initialShadingGroup
f 46/79/1 47/80/2 3/3/3 4/4/4
s 2
f 45/78/5 46/79/6 4/4/7 6/5/8
s 3
f 1/1/9 5/6/10 7/7/11 2/2/12
s 4
f 47/80/13 48/81/14 8/8/15 3/3/16
s 5
f 3/70/17 8/68/18 6/5/19 4/4/20
s 2
f 44/77/21 45/78/5 6/5/8 10/9/22
s 3
f 5/6/10 9/10/23 11/67/24 7/7/11
s 5
f 6/5/19 8/68/18 17/66/25 10/9/26
s 2
f 43/76/27 44/77/21 10/9/22 19/13/28
s 3
f 9/10/23 18/14/29 20/65/30 11/67/24
s 5
f 10/9/26 17/66/25 26/62/31 19/13/32
s 2
f 42/75/33 43/76/27 19/13/28 28/17/34
s 3
f 18/14/29 27/18/35 29/63/36 20/65/30
s 6
f 40/72/37 41/73/38 30/60/39 26/16/40
s 5
f 19/13/32 26/62/31 30/61/41 28/17/42
s 7
f 41/74/43 42/75/44 28/17/45 30/20/46
s off
f 13/53/47 31/59/48 32/47/49 14/24/50
f 14/24/51 32/47/52 33/41/53 15/26/54
f 24/56/55 37/28/56 35/43/57 25/30/58
f 21/51/59 36/32/60 38/44/61 22/34/62
f 23/54/63 39/45/64 37/28/65 24/56/66
f 22/34/67 38/44/68 39/45/69 23/54/70
s 8
f 35/29/71 34/37/72 32/23/73 31/42/74
f 32/23/73 34/37/72 36/40/75 33/25/76
f 35/29/71 37/46/77 39/36/78 34/37/72
f 39/36/78 38/33/79 36/40/75 34/37/72
s 4
f 48/81/14 15/52/80 16/50/81 17/12/82 8/8/15
s 6
f 22/55/83 40/72/37 26/16/40 17/12/84 16/50/85 21/31/86
s off
f 12/49/87 25/30/88 35/43/89 31/22/90 13/58/91
f 15/26/92 33/41/93 36/32/94 21/51/95 16/39/96
s 6
f 11/11/97 20/15/98 67/102/99 24/27/100 25/48/101 12/38/102
f 20/15/98 29/64/103 66/100/104 67/102/99
s 7
f 27/18/105 65/99/106 66/101/107 29/19/108
s 2
f 18/14/109 64/98/110 65/99/111 27/18/112
f 9/10/113 63/97/114 64/98/110 18/14/109
f 5/6/115 62/96/116 63/97/114 9/10/113
f 1/1/117 61/95/118 62/96/116 5/6/115
s 1
f 1/1/119 2/71/120 60/94/121 61/95/122
s 4
f 2/71/123 7/69/124 59/93/125 60/94/126
f 7/69/124 11/11/127 12/38/128 13/21/129 59/93/125
f 49/82/130 58/92/131 14/57/132 15/52/80 48/81/14
f 50/83/133 49/82/130 48/81/14 47/80/13
s 1
f 51/84/134 50/83/135 47/80/2 46/79/1
s 2
f 52/85/136 51/84/137 46/79/6 45/78/5
f 53/86/138 52/85/136 45/78/5 44/77/21
f 54/87/139 53/86/138 44/77/21 43/76/27
f 55/88/140 54/87/139 43/76/27 42/75/33
s 7
f 56/90/141 55/88/142 42/75/44 41/74/43
s 6
f 57/91/143 56/89/144 41/73/38 40/72/37
f 23/35/145 57/91/143 40/72/37 22/55/83
s 4
f 59/93/125 13/21/129 14/57/132 58/92/131 49/82/130
f 60/94/126 59/93/125 49/82/130 50/83/133
s 1
f 61/95/122 60/94/121 50/83/135 51/84/134
s 2
f 62/96/116 61/95/118 51/84/137 52/85/136
f 63/97/114 62/96/116 52/85/136 53/86/138
f 64/98/110 63/97/114 53/86/138 54/87/139
f 65/99/111 64/98/110 54/87/139 55/88/140
s 7
f 66/101/107 65/99/106 55/88/142 56/90/141
s 6
f 67/102/99 66/100/104 56/89/144 57/91/143
f 24/27/100 67/102/99 57/91/143 23/35/145
