# This file uses centimeters as units for non-parametric coordinates.

mtllib panneau.mtl
g default
v -3.523630 -0.019523 3.523630
v 3.523630 -0.019523 3.523630
v -3.523630 105.905548 3.523630
v 3.523630 105.905548 3.523630
v -3.523630 105.905548 -3.523630
v 3.523630 105.905548 -3.523630
v -3.523630 -0.019523 -3.523630
v 3.523630 -0.019523 -3.523630
v -3.523630 48.024288 3.523630
v -3.523630 48.024288 -3.523630
v 3.523630 48.024288 -3.523630
v 3.523630 48.024288 3.523630
v -3.523630 77.452769 -3.523630
v -3.523630 77.452769 3.523630
v 3.523630 77.452769 3.523630
v 3.523630 77.452769 -3.523630
v -3.523630 24.002385 3.523630
v -3.523630 24.002385 -3.523630
v 3.523630 24.002385 -3.523630
v 3.523630 24.002385 3.523630
v -3.523630 91.679151 -3.523630
v -3.523630 91.679151 3.523630
v 3.523630 91.679151 3.523630
v 3.523630 91.679151 -3.523630
v -3.523630 60.035242 3.523630
v -3.523630 60.035242 -3.523630
v 3.523630 60.035242 -3.523630
v 3.523630 60.035242 3.523630
v -3.523630 36.013337 -3.523630
v -3.523630 36.013337 3.523630
v 3.523630 36.013337 3.523630
v 3.523630 36.013337 -3.523630
v -3.523630 11.991434 3.523630
v -3.523630 11.991434 -3.523630
v 3.523630 11.991434 -3.523630
v 3.523630 11.991434 3.523630
v -3.523630 84.565957 3.523630
v -3.523630 84.565957 -3.523630
v 3.523630 84.565957 -3.523630
v 3.523630 84.565957 3.523630
v -3.523630 70.339583 -3.523630
v -3.523630 70.339583 3.523630
v 3.523630 70.339583 3.523630
v 3.523630 70.339583 -3.523630
v -3.523630 98.792359 -3.523630
v -3.523630 98.792359 3.523630
v 3.523630 98.792359 3.523630
v 3.523630 98.792359 -3.523630
v 6.571057 77.452769 3.523630
v 6.571057 77.452769 -3.523630
v 6.571057 84.565957 -3.523630
v 6.571057 84.565957 3.523630
v 6.571057 70.339583 3.523630
v 6.571057 70.339583 -3.523630
v 6.571057 91.679151 -3.523630
v 6.571057 91.679151 3.523630
v 3.523630 84.565957 -38.156626
v 3.523630 77.452769 -38.156626
v 6.571057 84.565957 -38.156626
v 6.571057 77.452769 -38.156626
v 3.523630 77.452769 34.222739
v 3.523630 84.565957 34.222739
v 6.571057 77.452769 34.222739
v 6.571057 84.565957 34.222739
v 3.523630 70.339583 34.222739
v 6.571057 70.339583 34.222739
v 3.523630 91.679151 34.222739
v 6.571057 91.679151 34.222739
v -3.523630 81.009371 3.523630
v -3.523630 81.009371 -3.523630
v 3.523630 81.009371 -3.523630
v 3.523630 81.009371 -38.156626
v 6.571057 81.009371 -38.156626
v 6.571057 81.009371 -3.523630
v 6.571057 81.009371 3.523630
v 6.571057 81.009371 34.222739
v 3.523630 81.009371 34.222739
v 3.523630 81.009371 3.523630
v 3.523630 84.565957 -20.840128
v 3.523630 81.009371 -20.840128
v 3.523630 77.452769 -20.840128
v 3.523630 70.339583 -20.840128
v 6.571057 70.339583 -20.840128
v 6.571057 77.452769 -20.840128
v 6.571057 81.009371 -20.840128
v 6.571057 84.565957 -20.840128
v 6.571057 91.679151 -20.840128
v 3.523630 91.679151 -20.840128
v 3.523630 77.452769 18.873185
v 3.523630 81.009371 18.873185
v 3.523630 84.565957 18.873185
v 3.523630 91.679151 18.873185
v 6.571057 91.679151 18.873185
v 6.571057 84.565957 18.873185
v 6.571057 81.009371 18.873185
v 6.571057 77.452769 18.873185
v 6.571057 70.339583 18.873185
v 3.523630 70.339583 18.873185
vt 0.862625 0.007812
vt 0.928116 0.007812
vt 0.928116 0.119431
vt 0.862625 0.119431
vt 0.928116 0.231050
vt 0.862625 0.231050
vt 0.928116 0.342669
vt 0.862625 0.342669
vt 0.928116 0.454288
vt 0.862625 0.454288
vt 0.928116 0.565907
vt 0.862625 0.565907
vt 0.928116 0.661666
vt 0.862625 0.661666
vt 0.292750 0.007812
vt 0.358241 0.007812
vt 0.358241 0.119432
vt 0.292750 0.119432
vt 0.358241 0.231051
vt 0.292750 0.231051
vt 0.358241 0.342670
vt 0.292750 0.342670
vt 0.358241 0.454290
vt 0.292750 0.454290
vt 0.358241 0.565909
vt 0.292750 0.565909
vt 0.358241 0.661668
vt 0.292750 0.661668
vt 0.358241 0.727772
vt 0.292750 0.727772
vt 0.358241 0.760824
vt 0.292750 0.760824
vt 0.358241 0.793876
vt 0.292750 0.793876
vt 0.358241 0.859980
vt 0.292750 0.859980
vt 0.358241 0.926084
vt 0.292750 0.926084
vt 0.358241 0.992187
vt 0.292750 0.992187
vt 0.655028 0.367348
vt 0.720519 0.367348
vt 0.720519 0.433451
vt 0.655028 0.433451
vt 0.655028 0.301244
vt 0.720519 0.301244
vt 0.073916 0.395152
vt 0.073916 0.329660
vt 0.106969 0.329660
vt 0.106969 0.395152
vt 0.007812 0.395152
vt 0.007812 0.329660
vt 0.073916 0.168736
vt 0.106969 0.168736
vt 0.140020 0.329660
vt 0.140020 0.395152
vt 0.106969 0.537796
vt 0.073916 0.537796
vt 0.007812 0.168736
vt 0.007812 0.537796
vt 0.106969 0.007812
vt 0.073916 0.007812
vt 0.140020 0.168736
vt 0.206124 0.329660
vt 0.206124 0.395152
vt 0.140020 0.537796
vt 0.106969 0.680442
vt 0.073916 0.680442
vt 0.007812 0.680442
vt 0.140020 0.007812
vt 0.206124 0.168736
vt 0.206124 0.537796
vt 0.140020 0.680442
vt 0.206124 0.680442
vt 0.513534 0.007812
vt 0.546586 0.007812
vt 0.546586 0.168737
vt 0.513534 0.168737
vt 0.579638 0.168737
vt 0.579638 0.007812
vt 0.546586 0.329661
vt 0.513534 0.329661
vt 0.447430 0.007812
vt 0.447430 0.168737
vt 0.579638 0.329661
vt 0.645741 0.007812
vt 0.645741 0.168737
vt 0.721131 0.150458
vt 0.754183 0.150458
vt 0.754183 0.293103
vt 0.721131 0.293103
vt 0.754183 0.007812
vt 0.721131 0.007812
vt 0.787235 0.293103
vt 0.787235 0.150458
vt 0.655028 0.293103
vt 0.655028 0.150458
vt 0.787235 0.007812
vt 0.655028 0.007812
vt 0.853339 0.293103
vt 0.853339 0.150458
vt 0.853339 0.007812
vt 0.732368 0.301244
vt 0.797858 0.301244
vt 0.797858 0.366735
vt 0.732368 0.366735
vt 0.484065 0.337802
vt 0.549556 0.337802
vt 0.549556 0.403293
vt 0.484065 0.403293
vt 0.614322 0.664184
vt 0.614322 0.598061
vt 0.642916 0.598061
vt 0.642916 0.664184
vt 0.614322 0.435584
vt 0.642916 0.435584
vt 0.642916 0.808206
vt 0.614322 0.808206
vt 0.614322 0.273107
vt 0.642916 0.273107
vt 0.642916 0.952227
vt 0.614322 0.952227
vt 0.939965 0.361979
vt 0.939965 0.295856
vt 0.968558 0.295856
vt 0.968558 0.361979
vt 0.939965 0.151834
vt 0.968558 0.151834
vt 0.968558 0.524456
vt 0.939965 0.524456
vt 0.939965 0.007812
vt 0.968558 0.007812
vt 0.968558 0.686933
vt 0.939965 0.686933
vt 0.215410 0.007812
vt 0.280901 0.007812
vt 0.280901 0.119432
vt 0.215410 0.119432
vt 0.280901 0.231051
vt 0.215410 0.231051
vt 0.280901 0.342670
vt 0.215410 0.342670
vt 0.280901 0.454290
vt 0.215410 0.454290
vt 0.280901 0.565909
vt 0.215410 0.565909
vt 0.280901 0.661669
vt 0.215410 0.661669
vt 0.280901 0.727772
vt 0.215410 0.727772
vt 0.280901 0.760824
vt 0.215410 0.760824
vt 0.280901 0.793876
vt 0.215410 0.793876
vt 0.280901 0.859980
vt 0.215410 0.859980
vt 0.280901 0.926084
vt 0.215410 0.926084
vt 0.280901 0.992188
vt 0.215410 0.992188
vt 0.370090 0.880568
vt 0.435581 0.880568
vt 0.435581 0.992187
vt 0.370090 0.992187
vt 0.370090 0.768948
vt 0.435581 0.768948
vt 0.370090 0.657329
vt 0.435581 0.657329
vt 0.370090 0.545710
vt 0.435581 0.545710
vt 0.370090 0.434091
vt 0.435581 0.434091
vt 0.370090 0.338331
vt 0.435581 0.338331
vt 0.370090 0.272227
vt 0.435581 0.272227
vt 0.370090 0.239175
vt 0.435581 0.239175
vt 0.370090 0.206124
vt 0.435581 0.206124
vt 0.370090 0.140020
vt 0.435581 0.140020
vt 0.370090 0.073916
vt 0.435581 0.073916
vt 0.370090 0.007812
vt 0.435581 0.007812
vt 0.178775 0.073916
vt 0.178775 0.040864
vt 0.207095 0.040864
vt 0.207095 0.073916
vt 0.178775 0.007812
vt 0.207095 0.007812
vt 0.475750 0.365295
vt 0.447430 0.365295
vt 0.447430 0.332243
vt 0.475750 0.332243
vt 0.447430 0.398347
vt 0.475750 0.398347
vt 0.447430 0.266140
vt 0.475750 0.266140
vt 0.447430 0.464451
vt 0.475750 0.464451
vn 0.000000 0.000000 1.000000
vn 0.000000 0.000000 1.000000
vn 0.000000 0.000000 1.000000
vn 0.000000 0.000000 1.000000
vn 0.000000 1.000000 0.000000
vn 0.000000 1.000000 0.000000
vn 0.000000 1.000000 0.000000
vn 0.000000 1.000000 0.000000
vn 0.000000 0.000000 -1.000000
vn 0.000000 0.000000 -1.000000
vn 0.000000 0.000000 -1.000000
vn 0.000000 0.000000 -1.000000
vn 0.000000 -1.000000 0.000000
vn 0.000000 -1.000000 0.000000
vn 0.000000 -1.000000 0.000000
vn 0.000000 -1.000000 0.000000
vn 1.000000 0.000000 0.000000
vn 1.000000 0.000000 0.000000
vn 1.000000 0.000000 0.000000
vn 1.000000 0.000000 0.000000
vn -1.000000 0.000000 0.000000
vn -1.000000 0.000000 0.000000
vn -1.000000 0.000000 0.000000
vn -1.000000 0.000000 0.000000
vn -1.000000 0.000000 0.000000
vn -1.000000 0.000000 0.000000
vn -1.000000 0.000000 0.000000
vn -1.000000 0.000000 0.000000
vn 0.000000 0.000000 -1.000000
vn 0.000000 0.000000 -1.000000
vn 0.000000 0.000000 -1.000000
vn 0.000000 0.000000 -1.000000
vn 1.000000 0.000000 0.000000
vn 1.000000 0.000000 0.000000
vn 1.000000 0.000000 0.000000
vn 1.000000 0.000000 0.000000
vn 0.000000 0.000000 1.000000
vn 0.000000 0.000000 1.000000
vn 0.000000 0.000000 1.000000
vn 0.000000 0.000000 1.000000
vn -1.000000 0.000000 0.000000
vn -1.000000 0.000000 0.000000
vn -1.000000 0.000000 0.000000
vn -1.000000 0.000000 0.000000
vn 0.000000 0.000000 1.000000
vn 0.000000 0.000000 1.000000
vn 0.000000 0.000000 1.000000
vn 0.000000 0.000000 1.000000
vn 1.000000 0.000000 0.000000
vn 1.000000 0.000000 0.000000
vn 1.000000 0.000000 0.000000
vn 1.000000 0.000000 0.000000
vn 0.000000 0.000000 -1.000000
vn 0.000000 0.000000 -1.000000
vn 0.000000 0.000000 -1.000000
vn 0.000000 0.000000 -1.000000
vn -1.000000 0.000000 0.000000
vn -1.000000 0.000000 0.000000
vn 0.000000 0.000000 -1.000000
vn 0.000000 0.000000 -1.000000
vn 1.000000 0.000000 0.000000
vn 1.000000 0.000000 0.000000
vn 0.000000 0.000000 1.000000
vn 0.000000 0.000000 1.000000
vn -1.000000 0.000000 0.000000
vn -1.000000 0.000000 0.000000
vn -1.000000 0.000000 0.000000
vn -1.000000 0.000000 0.000000
vn 0.000000 0.000000 1.000000
vn 0.000000 0.000000 1.000000
vn 0.000000 0.000000 1.000000
vn 0.000000 0.000000 1.000000
vn 1.000000 0.000000 0.000000
vn 1.000000 0.000000 0.000000
vn 1.000000 0.000000 0.000000
vn 1.000000 0.000000 0.000000
vn 0.000000 0.000000 -1.000000
vn 0.000000 0.000000 -1.000000
vn 0.000000 0.000000 -1.000000
vn 0.000000 0.000000 -1.000000
vn -1.000000 0.000000 0.000000
vn -1.000000 0.000000 0.000000
vn 0.000000 0.000000 -1.000000
vn 0.000000 0.000000 -1.000000
vn 1.000000 0.000000 0.000000
vn 1.000000 0.000000 0.000000
vn 0.000000 0.000000 1.000000
vn 0.000000 0.000000 1.000000
vn -1.000000 0.000000 0.000000
vn -1.000000 0.000000 0.000000
vn 0.000000 0.000000 1.000000
vn 0.000000 0.000000 1.000000
vn 1.000000 0.000000 0.000000
vn 1.000000 0.000000 0.000000
vn 0.000000 0.000000 -1.000000
vn 0.000000 0.000000 -1.000000
vn -1.000000 0.000000 0.000000
vn -1.000000 0.000000 0.000000
vn -1.000000 0.000000 0.000000
vn -1.000000 0.000000 0.000000
vn 0.000000 0.000000 -1.000000
vn 0.000000 0.000000 -1.000000
vn 0.000000 0.000000 -1.000000
vn 0.000000 0.000000 -1.000000
vn 1.000000 0.000000 0.000000
vn 1.000000 0.000000 0.000000
vn 1.000000 0.000000 0.000000
vn 1.000000 0.000000 0.000000
vn 0.000000 0.000000 1.000000
vn 0.000000 0.000000 1.000000
vn 0.000000 0.000000 1.000000
vn 0.000000 0.000000 1.000000
vn 1.000000 0.000000 0.000000
vn 1.000000 0.000000 0.000000
vn 1.000000 0.000000 0.000000
vn 1.000000 0.000000 0.000000
vn 0.000000 -0.851362 -0.524578
vn 0.000000 0.000000 -1.000000
vn 0.000000 0.000000 -1.000000
vn 0.000000 -0.851362 -0.524578
vn 0.000000 0.000000 1.000000
vn 0.000000 0.000000 1.000000
vn 0.000000 0.000000 1.000000
vn 0.000000 0.000000 1.000000
vn 0.000000 -1.000000 0.000000
vn 0.000000 -1.000000 0.000000
vn 0.000000 -1.000000 0.000000
vn 0.000000 -1.000000 0.000000
vn 0.000000 0.000000 1.000000
vn 0.000000 0.000000 1.000000
vn 0.000000 1.000000 0.000000
vn 0.000000 1.000000 0.000000
vn 0.000000 1.000000 0.000000
vn 0.000000 1.000000 0.000000
vn 0.000000 0.000000 1.000000
vn 0.000000 0.000000 1.000000
vn 0.000000 0.000000 1.000000
vn 0.000000 0.000000 1.000000
vn -1.000000 0.000000 0.000000
vn -1.000000 0.000000 0.000000
vn -1.000000 0.000000 0.000000
vn -1.000000 0.000000 0.000000
vn 1.000000 0.000000 0.000000
vn 1.000000 0.000000 0.000000
vn -1.000000 0.000000 0.000000
vn -1.000000 0.000000 0.000000
vn 1.000000 0.000000 0.000000
vn 0.000000 -0.979553 -0.201188
vn 0.000000 -0.979553 -0.201188
vn -1.000000 0.000000 0.000000
vn -1.000000 0.000000 0.000000
vn -1.000000 0.000000 0.000000
vn -1.000000 0.000000 0.000000
vn 0.000000 0.979553 -0.201188
vn 0.000000 0.979553 -0.201188
vn 1.000000 0.000000 0.000000
vn 1.000000 0.000000 0.000000
vn -1.000000 0.000000 0.000000
vn -1.000000 0.000000 0.000000
vn -1.000000 0.000000 0.000000
vn -1.000000 0.000000 0.000000
vn 1.000000 0.000000 0.000000
vn 1.000000 0.000000 0.000000
vn -1.000000 0.000000 0.000000
vn -1.000000 0.000000 0.000000
vn 0.000000 -1.000000 0.000000
vn 0.000000 -1.000000 0.000000
vn 1.000000 0.000000 0.000000
vn -1.000000 0.000000 0.000000
vn -1.000000 0.000000 0.000000
vn -1.000000 0.000000 0.000000
vn -1.000000 0.000000 0.000000
vn 1.000000 0.000000 0.000000
vn 1.000000 0.000000 0.000000
vn 0.000000 1.000000 0.000000
vn 0.000000 1.000000 0.000000
vn 0.000000 0.851362 -0.524578
vn 0.000000 0.851362 -0.524578
vn -1.000000 0.000000 0.000000
vn -1.000000 0.000000 0.000000
vn -1.000000 0.000000 0.000000
vn 1.000000 0.000000 0.000000
vn 1.000000 0.000000 0.000000
vn 1.000000 0.000000 0.000000
vn -1.000000 0.000000 0.000000
vn -1.000000 0.000000 0.000000
vn -1.000000 0.000000 0.000000
vn -1.000000 0.000000 0.000000
vn 0.000000 1.000000 0.000000
vn 0.000000 1.000000 0.000000
vn 1.000000 0.000000 0.000000
vn 1.000000 0.000000 0.000000
vn 1.000000 0.000000 0.000000
vn 1.000000 0.000000 0.000000
vn 1.000000 0.000000 0.000000
vn 0.000000 -1.000000 0.000000
vn 0.000000 -1.000000 0.000000
vn -1.000000 0.000000 0.000000
s 1
g props_panneau_direction
usemtl initialShadingGroup
f 1/135/1 2/136/2 36/137/3 33/138/4
s off
f 3/103/5 4/104/6 6/105/7 5/106/8
s 2
f 34/161/9 35/162/10 8/163/11 7/164/12
s off
f 7/107/13 8/108/14 2/109/15 1/110/16
s 3
f 2/1/17 8/2/18 35/3/19 36/4/20
s 4
f 7/15/21 1/16/22 33/17/23 34/18/24
f 45/38/25 46/37/26 3/39/27 5/40/28
s 2
f 5/185/29 6/186/30 48/184/31 45/183/32
s 7
f 47/41/33 48/42/34 6/43/35 4/44/36
s 1
f 46/158/37 47/157/38 4/159/39 3/160/40
s 4
f 10/24/41 9/23/42 25/25/43 26/26/44
s 1
f 9/144/45 12/143/46 28/145/47 25/146/48
s 3
f 12/10/49 11/9/50 27/11/51 28/12/52
s 2
f 26/171/53 27/172/54 11/170/55 10/169/56
s 4
f 29/22/57 30/21/58 9/23/42 10/24/41
s 2
f 10/169/56 11/170/55 32/168/59 29/167/60
s 3
f 31/8/61 32/7/62 11/9/50 12/10/49
s 1
f 30/142/63 31/141/64 12/143/46 9/144/45
s 4
f 13/30/65 14/29/66 69/31/67 70/32/68
s 1
f 14/150/69 15/149/70 78/151/71 69/152/72
s 15
f 49/47/73 50/48/74 74/49/75 75/50/76
s 2
f 70/177/77 71/178/78 16/176/79 13/175/80
s 4
f 41/28/81 42/27/82 14/29/66 13/30/65
s 2
f 13/175/80 16/176/79 44/174/83 41/173/84
s 15
f 53/51/85 54/52/86 50/48/74 49/47/73
s 1
f 42/148/87 43/147/88 15/149/70 14/150/69
s 4
f 18/20/89 17/19/90 30/21/58 29/22/57
s 1
f 17/140/91 20/139/92 31/141/64 30/142/63
s 3
f 20/6/93 19/5/94 32/7/62 31/8/61
s 2
f 29/167/60 32/168/59 19/166/95 18/165/96
s 4
f 34/18/24 33/17/23 17/19/90 18/20/89
s 2
f 18/165/96 19/166/95 35/162/10 34/161/9
s 3
f 36/4/20 35/3/19 19/5/94 20/6/93
s 1
f 33/138/4 36/137/3 20/139/92 17/140/91
s 4
f 38/34/97 37/33/98 22/35/99 21/36/100
s 2
f 21/181/101 24/182/102 39/180/103 38/179/104
s 15
f 52/56/105 51/55/106 55/64/107 56/65/108
s 1
f 37/154/109 40/153/110 23/155/111 22/156/112
s 4
f 26/26/44 25/25/43 42/27/82 41/28/81
s 1
f 25/146/48 28/145/47 43/147/88 42/148/87
s 3
f 28/12/52 27/11/51 44/13/113 43/14/114
s 2
f 41/173/84 44/174/83 27/172/54 26/171/53
s 4
f 21/36/100 22/35/99 46/37/26 45/38/25
s 1
f 22/156/112 23/155/111 47/157/38 46/158/37
s 7
f 23/45/115 24/46/116 48/42/34 47/41/33
s 2
f 45/183/32 48/184/31 24/182/102 21/181/101
s 17
f 58/187/117 72/188/118 73/189/119 60/190/120
s 18
f 76/193/121 77/194/122 61/195/123 63/196/124
s 17
f 43/111/125 44/112/126 54/113/127 53/114/128
s 18
f 61/195/123 65/199/129 66/200/130 63/196/124
s 17
f 24/123/131 23/124/132 56/125/133 55/126/134
s 18
f 67/201/135 62/197/136 64/198/137 68/202/138
s 21
f 16/75/139 71/76/140 80/77/141 81/78/142
s 15
f 84/53/143 85/54/144 74/49/75 50/48/74
s 21
f 44/83/145 16/75/139 81/78/142 82/84/146
s 15
f 50/48/74 54/52/86 83/59/147 84/53/143
s 17
f 54/113/127 44/112/126 82/115/148 83/116/149
s 21
f 39/80/150 24/86/151 88/87/152 79/79/153
s 17
f 24/123/131 55/126/134 87/129/154 88/130/155
s 15
f 55/64/107 51/55/106 86/63/156 87/71/157
s 23
f 89/88/158 90/89/159 78/90/160 15/91/161
s 15
f 49/47/73 75/50/76 95/57/162 96/58/163
s 23
f 15/91/161 43/96/164 98/97/165 89/88/158
s 17
f 43/111/125 53/114/128 97/117/166 98/118/167
s 15
f 53/51/85 49/47/73 96/58/163 97/60/168
s 23
f 23/100/169 40/94/170 91/95/171 92/101/172
s 15
f 52/56/105 56/65/108 93/72/173 94/66/174
s 17
f 56/125/133 23/124/132 92/127/175 93/128/176
s 4
f 70/32/68 69/31/67 37/33/98 38/34/97
s 2
f 38/179/104 39/180/103 71/178/78 70/177/77
s 21
f 79/79/153 80/77/141 71/76/140 39/80/150
s 17
f 73/189/119 72/188/118 57/191/177 59/192/178
s 15
f 51/55/106 74/49/75 85/54/144 86/63/156
f 75/50/76 74/49/75 51/55/106 52/56/105
f 94/66/174 95/57/162 75/50/76 52/56/105
s 18
f 62/197/136 77/194/122 76/193/121 64/198/137
s 23
f 40/94/170 78/90/160 90/89/159 91/95/171
s 1
f 69/152/72 78/151/71 40/153/110 37/154/109
s 21
f 72/81/179 80/77/141 79/79/153 57/85/180
f 81/78/142 80/77/141 72/81/179 58/82/181
f 82/84/146 81/78/142 58/82/181
s 17
f 83/116/149 82/115/148 58/119/117 60/120/120
s 15
f 84/53/143 83/59/147 60/62/182
f 73/61/183 85/54/144 84/53/143 60/62/182
f 86/63/156 85/54/144 73/61/183 59/70/184
f 87/71/157 86/63/156 59/70/184
s 17
f 88/130/155 87/129/154 59/133/178 57/134/177
s 21
f 79/79/153 88/87/152 57/85/180
s 23
f 77/92/185 90/89/159 89/88/158 61/93/186
f 91/95/171 90/89/159 77/92/185 62/98/187
f 92/101/172 91/95/171 62/98/187 67/102/188
s 17
f 93/128/176 92/127/175 67/131/189 68/132/190
s 15
f 94/66/174 93/72/173 68/74/191 64/73/192
f 76/67/193 95/57/162 94/66/174 64/73/192
f 96/58/163 95/57/162 76/67/193 63/68/194
f 97/60/168 96/58/163 63/68/194 66/69/195
s 17
f 98/118/167 97/117/166 66/121/196 65/122/197
s 23
f 89/88/158 98/97/165 65/99/198 61/93/186
