# This file uses centimeters as units for non-parametric coordinates.

mtllib panneau affiche.mtl
g default
v -3.693266 -0.037932 3.693266
v 3.693266 -0.037932 3.693266
v -3.693266 164.811939 3.693266
v 3.693266 164.811939 3.693266
v -3.693266 164.811939 -3.693266
v 3.693266 164.811939 -3.693266
v -3.693266 -0.037932 -3.693266
v 3.693266 -0.037932 -3.693266
v -3.693266 82.387000 3.693266
v -3.693266 82.387000 -3.693266
v 3.693266 82.387000 -3.693266
v 3.693266 82.387000 3.693266
v -3.693266 123.599473 -3.693266
v -3.693266 123.599473 3.693266
v 3.693266 123.599473 3.693266
v 3.693266 123.599473 -3.693266
v -3.693266 41.174534 3.693266
v -3.693266 41.174534 -3.693266
v 3.693266 41.174534 -3.693266
v 3.693266 41.174534 3.693266
v -3.693266 102.993233 3.693266
v -3.693266 102.993233 -3.693266
v 3.693266 102.993233 -3.693266
v 3.693266 102.993233 3.693266
v -3.693266 144.205706 -3.693266
v -3.693266 144.205706 3.693266
v 3.693266 144.205706 3.693266
v 3.693266 144.205706 -3.693266
v -3.693266 61.780767 -3.693266
v -3.693266 61.780767 3.693266
v 3.693266 61.780767 3.693266
v 3.693266 61.780767 -3.693266
v -3.693266 20.568301 3.693266
v -3.693266 20.568301 -3.693266
v 3.693266 20.568301 -3.693266
v 3.693266 20.568301 3.693266
v -3.693266 154.508808 -3.693266
v -3.693266 154.508808 3.693266
v 3.693266 154.508808 3.693266
v 3.693266 154.508808 -3.693266
v 9.701824 102.993233 -3.693266
v 9.701824 102.993233 3.693266
v 9.701824 123.599473 -3.693266
v 9.701824 123.599473 3.693266
v 9.701824 144.205706 -3.693266
v 9.701824 144.205706 3.693266
v 9.701824 154.508808 -3.693266
v 9.701824 154.508808 3.693266
v 3.693266 123.599473 -18.775143
v 3.693266 102.993233 -18.775143
v 9.701824 123.599473 -18.775143
v 9.701824 102.993233 -18.775143
v 3.693266 144.205706 -18.775143
v 9.701824 144.205706 -18.775143
v 3.693266 154.508808 -18.775143
v 9.701824 154.508808 -18.775143
v 3.693266 102.993233 18.775143
v 3.693266 123.599473 18.775143
v 9.701824 102.993233 18.775143
v 9.701824 123.599473 18.775143
v 3.693266 144.205706 18.775143
v 9.701824 144.205706 18.775143
v 3.693266 154.508808 18.775143
v 9.701824 154.508808 18.775143
vt 0.588661 0.007812
vt 0.632768 0.007812
vt 0.632768 0.130860
vt 0.588661 0.130860
vt 0.632768 0.253907
vt 0.588661 0.253907
vt 0.632768 0.376954
vt 0.588661 0.376954
vt 0.632768 0.500001
vt 0.588661 0.500001
vt 0.632768 0.623048
vt 0.588661 0.623048
vt 0.342431 0.007812
vt 0.386539 0.007812
vt 0.386539 0.130859
vt 0.342431 0.130859
vt 0.386539 0.253906
vt 0.342431 0.253906
vt 0.386539 0.376953
vt 0.342431 0.376953
vt 0.386539 0.500000
vt 0.342431 0.500000
vt 0.386539 0.623047
vt 0.342431 0.623047
vt 0.386539 0.746093
vt 0.342431 0.746093
vt 0.386539 0.869140
vt 0.342431 0.869140
vt 0.386539 0.930663
vt 0.342431 0.930663
vt 0.386539 0.992187
vt 0.342431 0.992187
vt 0.815949 0.007812
vt 0.860056 0.007812
vt 0.860056 0.069336
vt 0.815949 0.069336
vt 0.097871 0.007812
vt 0.141979 0.007812
vt 0.141979 0.130859
vt 0.097871 0.130859
vt 0.232037 0.007812
vt 0.232037 0.130859
vt 0.141979 0.253906
vt 0.097871 0.253906
vt 0.007812 0.130859
vt 0.007812 0.007812
vt 0.232037 0.253906
vt 0.141979 0.315430
vt 0.097871 0.315430
vt 0.007812 0.253906
vt 0.232037 0.315430
vt 0.007812 0.315430
vt 0.482999 0.007812
vt 0.482999 0.130859
vt 0.392940 0.130859
vt 0.392940 0.007812
vt 0.482999 0.253905
vt 0.392940 0.253905
vt 0.482999 0.315429
vt 0.392940 0.315429
vt 0.490800 0.130859
vt 0.490800 0.007812
vt 0.580859 0.007812
vt 0.580859 0.130859
vt 0.490800 0.253906
vt 0.580859 0.253906
vt 0.490800 0.315429
vt 0.580859 0.315429
vt 0.866457 0.051920
vt 0.866457 0.007812
vt 0.910565 0.007812
vt 0.910565 0.051920
vt 0.916966 0.007812
vt 0.961073 0.007812
vt 0.961073 0.051920
vt 0.916966 0.051920
vt 0.727559 0.141979
vt 0.727559 0.097872
vt 0.763438 0.097872
vt 0.763438 0.141979
vt 0.727559 0.007812
vt 0.763438 0.007812
vt 0.763438 0.232037
vt 0.727559 0.232037
vt 0.771754 0.141978
vt 0.771754 0.097871
vt 0.807633 0.097871
vt 0.807633 0.141978
vt 0.771754 0.007812
vt 0.807633 0.007812
vt 0.807633 0.232037
vt 0.771754 0.232037
vt 0.241414 0.007812
vt 0.285522 0.007812
vt 0.285522 0.130859
vt 0.241414 0.130859
vt 0.285522 0.253906
vt 0.241414 0.253906
vt 0.285522 0.376953
vt 0.241414 0.376953
vt 0.285522 0.500000
vt 0.241414 0.500000
vt 0.285522 0.623047
vt 0.241414 0.623047
vt 0.285522 0.746093
vt 0.241414 0.746093
vt 0.285522 0.869140
vt 0.241414 0.869140
vt 0.285522 0.930663
vt 0.241414 0.930663
vt 0.285522 0.992187
vt 0.241414 0.992187
vt 0.291923 0.869141
vt 0.336030 0.869141
vt 0.336030 0.992188
vt 0.291923 0.992188
vt 0.291923 0.746094
vt 0.336030 0.746094
vt 0.291923 0.623047
vt 0.336030 0.623047
vt 0.291923 0.500000
vt 0.336030 0.500000
vt 0.291923 0.376953
vt 0.336030 0.376953
vt 0.291923 0.253906
vt 0.336030 0.253906
vt 0.291923 0.130859
vt 0.336030 0.130859
vt 0.291923 0.069337
vt 0.336030 0.069337
vt 0.291923 0.007812
vt 0.336030 0.007812
vt 0.639169 0.315428
vt 0.639169 0.192382
vt 0.675048 0.192382
vt 0.675048 0.315428
vt 0.639169 0.069335
vt 0.675048 0.069335
vt 0.639169 0.007812
vt 0.675048 0.007812
vt 0.683364 0.130859
vt 0.683364 0.007812
vt 0.719243 0.007812
vt 0.719243 0.130859
vt 0.683364 0.253905
vt 0.719243 0.253905
vt 0.683364 0.315429
vt 0.719243 0.315429
vn 0.000000 0.000000 1.000000
vn 0.000000 0.000000 1.000000
vn 0.000000 0.000000 1.000000
vn 0.000000 0.000000 1.000000
vn 0.000000 1.000000 0.000000
vn 0.000000 1.000000 0.000000
vn 0.000000 1.000000 0.000000
vn 0.000000 1.000000 0.000000
vn 0.000000 0.000000 -1.000000
vn 0.000000 0.000000 -1.000000
vn 0.000000 0.000000 -1.000000
vn 0.000000 0.000000 -1.000000
vn 0.000000 -1.000000 0.000000
vn 0.000000 -1.000000 0.000000
vn 0.000000 -1.000000 0.000000
vn 0.000000 -1.000000 0.000000
vn 1.000000 0.000000 0.000000
vn 1.000000 0.000000 0.000000
vn 1.000000 0.000000 0.000000
vn 1.000000 0.000000 0.000000
vn -1.000000 0.000000 0.000000
vn -1.000000 0.000000 0.000000
vn -1.000000 0.000000 0.000000
vn -1.000000 0.000000 0.000000
vn -1.000000 0.000000 0.000000
vn -1.000000 0.000000 0.000000
vn -1.000000 0.000000 0.000000
vn -1.000000 0.000000 0.000000
vn 0.000000 0.000000 -1.000000
vn 0.000000 0.000000 -1.000000
vn 0.000000 0.000000 -1.000000
vn 0.000000 0.000000 -1.000000
vn 1.000000 0.000000 0.000000
vn 1.000000 0.000000 0.000000
vn 1.000000 0.000000 0.000000
vn 1.000000 0.000000 0.000000
vn 0.000000 0.000000 1.000000
vn 0.000000 0.000000 1.000000
vn 0.000000 0.000000 1.000000
vn 0.000000 0.000000 1.000000
vn -1.000000 0.000000 0.000000
vn -1.000000 0.000000 0.000000
vn -1.000000 0.000000 0.000000
vn -1.000000 0.000000 0.000000
vn 0.000000 0.000000 1.000000
vn 0.000000 0.000000 1.000000
vn 0.000000 0.000000 1.000000
vn 0.000000 0.000000 1.000000
vn 1.000000 0.000000 0.000000
vn 1.000000 0.000000 0.000000
vn 1.000000 0.000000 0.000000
vn 1.000000 0.000000 0.000000
vn 0.000000 0.000000 -1.000000
vn 0.000000 0.000000 -1.000000
vn 0.000000 0.000000 -1.000000
vn 0.000000 0.000000 -1.000000
vn -1.000000 0.000000 0.000000
vn -1.000000 0.000000 0.000000
vn 0.000000 0.000000 -1.000000
vn 0.000000 0.000000 -1.000000
vn 1.000000 0.000000 0.000000
vn 1.000000 0.000000 0.000000
vn 0.000000 0.000000 1.000000
vn 0.000000 0.000000 1.000000
vn -1.000000 0.000000 0.000000
vn -1.000000 0.000000 0.000000
vn 0.000000 0.000000 -1.000000
vn 0.000000 0.000000 -1.000000
vn 1.000000 0.000000 0.000000
vn 1.000000 0.000000 0.000000
vn 1.000000 0.000000 0.000000
vn 1.000000 0.000000 0.000000
vn 0.000000 0.000000 1.000000
vn 0.000000 0.000000 1.000000
vn -1.000000 0.000000 0.000000
vn -1.000000 0.000000 0.000000
vn 0.000000 0.000000 1.000000
vn 0.000000 0.000000 1.000000
vn 1.000000 0.000000 0.000000
vn 1.000000 0.000000 0.000000
vn 0.000000 0.000000 -1.000000
vn 0.000000 0.000000 -1.000000
vn -1.000000 0.000000 0.000000
vn -1.000000 0.000000 0.000000
vn 0.000000 0.000000 1.000000
vn 0.000000 0.000000 1.000000
vn 1.000000 0.000000 0.000000
vn 1.000000 0.000000 0.000000
vn 0.000000 0.000000 -1.000000
vn 0.000000 0.000000 -1.000000
vn 1.000000 0.000000 0.000000
vn 1.000000 0.000000 0.000000
vn 0.000000 -1.000000 0.000000
vn 0.000000 -1.000000 0.000000
vn 0.000000 -1.000000 0.000000
vn 0.000000 -1.000000 0.000000
vn 0.000000 0.000000 -1.000000
vn 0.000000 0.000000 -1.000000
vn 0.000000 0.000000 -1.000000
vn 0.000000 0.000000 -1.000000
vn 0.000000 0.000000 1.000000
vn 0.000000 0.000000 1.000000
vn 0.000000 0.000000 1.000000
vn 0.000000 0.000000 1.000000
vn 0.000000 0.000000 -1.000000
vn 0.000000 0.000000 -1.000000
vn 0.000000 0.000000 1.000000
vn 0.000000 0.000000 1.000000
vn 0.000000 0.000000 -1.000000
vn 0.000000 0.000000 -1.000000
vn 0.000000 1.000000 0.000000
vn 0.000000 1.000000 0.000000
vn 0.000000 1.000000 0.000000
vn 0.000000 1.000000 0.000000
vn 0.000000 0.000000 1.000000
vn 0.000000 0.000000 1.000000
vn -1.000000 0.000000 0.000000
vn -1.000000 0.000000 0.000000
vn -1.000000 0.000000 0.000000
vn -1.000000 0.000000 0.000000
vn 1.000000 0.000000 0.000000
vn 1.000000 0.000000 0.000000
vn 0.000000 -1.000000 0.000000
vn 0.000000 -1.000000 0.000000
vn -1.000000 0.000000 0.000000
vn -1.000000 0.000000 0.000000
vn 1.000000 0.000000 0.000000
vn -1.000000 0.000000 0.000000
vn -1.000000 0.000000 0.000000
vn 0.000000 1.000000 0.000000
vn 0.000000 1.000000 0.000000
vn 1.000000 0.000000 0.000000
vn -1.000000 0.000000 0.000000
vn -1.000000 0.000000 0.000000
vn -1.000000 0.000000 0.000000
vn -1.000000 0.000000 0.000000
vn 0.000000 -1.000000 0.000000
vn 0.000000 -1.000000 0.000000
vn 1.000000 0.000000 0.000000
vn 1.000000 0.000000 0.000000
vn -1.000000 0.000000 0.000000
vn -1.000000 0.000000 0.000000
vn 1.000000 0.000000 0.000000
vn -1.000000 0.000000 0.000000
vn -1.000000 0.000000 0.000000
vn 1.000000 0.000000 0.000000
vn 0.000000 1.000000 0.000000
vn 0.000000 1.000000 0.000000
s 1
g props_panneau_affiche
usemtl initialShadingGroup
f 1/93/1 2/94/2 36/95/3 33/96/4
s off
f 3/69/5 4/70/6 6/71/7 5/72/8
s 2
f 34/113/9 35/114/10 8/115/11 7/116/12
s off
f 7/73/13 8/74/14 2/75/15 1/76/16
s 3
f 2/1/17 8/2/18 35/3/19 36/4/20
s 4
f 7/13/21 1/14/22 33/15/23 34/16/24
f 37/30/25 38/29/26 3/31/27 5/32/28
s 2
f 5/131/29 6/132/30 40/130/31 37/129/32
s off
f 39/33/33 40/34/34 6/35/35 4/36/36
s 1
f 38/110/37 39/109/38 4/111/39 3/112/40
s 4
f 10/22/41 9/21/42 21/23/43 22/24/44
s 1
f 9/102/45 12/101/46 24/103/47 21/104/48
s 3
f 12/10/49 11/9/50 23/11/51 24/12/52
s 2
f 22/123/53 23/124/54 11/122/55 10/121/56
s 4
f 29/20/57 30/19/58 9/21/42 10/22/41
s 2
f 10/121/56 11/122/55 32/120/59 29/119/60
s 3
f 31/8/61 32/7/62 11/9/50 12/10/49
s 1
f 30/100/63 31/99/64 12/101/46 9/102/45
s 4
f 22/24/44 21/23/43 14/25/65 13/26/66
s 2
f 13/125/67 16/126/68 23/124/54 22/123/53
s 12
f 42/37/69 41/38/70 43/39/71 44/40/72
s 1
f 21/104/48 24/103/47 15/105/73 14/106/74
s 4
f 13/26/66 14/25/65 26/27/75 25/28/76
s 1
f 14/106/74 15/105/73 27/107/77 26/108/78
s 12
f 44/40/72 43/39/71 45/43/79 46/44/80
s 2
f 25/127/81 28/128/82 16/126/68 13/125/67
s 4
f 18/18/83 17/17/84 30/19/58 29/20/57
s 1
f 17/98/85 20/97/86 31/99/64 30/100/63
s 3
f 20/6/87 19/5/88 32/7/62 31/8/61
s 2
f 29/119/60 32/120/59 19/118/89 18/117/90
s 4
f 34/16/24 33/15/23 17/17/84 18/18/83
s 2
f 18/117/90 19/118/89 35/114/10 34/113/9
s 3
f 36/4/20 35/3/19 19/5/88 20/6/87
s 1
f 33/96/4 36/95/3 20/97/86 17/98/85
s 4
f 25/28/76 26/27/75 38/29/26 37/30/25
s 1
f 26/108/78 27/107/77 39/109/38 38/110/37
s 12
f 46/44/80 45/43/79 47/48/91 48/49/92
s 2
f 37/129/32 40/130/31 28/128/82 25/127/81
s 13
f 24/77/93 23/78/94 41/79/95 42/80/96
s 14
f 50/133/97 49/134/98 51/135/99 52/136/100
s 15
f 58/141/101 57/142/102 59/143/103 60/144/104
s 14
f 49/134/98 53/137/105 54/138/106 51/135/99
s 15
f 61/145/107 58/141/101 60/144/104 62/146/108
s 14
f 53/137/105 55/139/109 56/140/110 54/138/106
s 16
f 40/85/111 39/86/112 48/87/113 47/88/114
s 15
f 63/147/115 61/145/107 62/146/108 64/148/116
s 17
f 23/53/117 16/54/118 49/55/119 50/56/120
s 12
f 43/39/71 41/38/70 52/41/121 51/42/122
s 13
f 41/79/95 23/78/94 50/81/123 52/82/124
s 17
f 16/54/118 28/57/125 53/58/126 49/55/119
s 12
f 45/43/79 43/39/71 51/42/122 54/47/127
s 17
f 28/57/125 40/59/128 55/60/129 53/58/126
s 16
f 40/85/111 47/88/114 56/91/130 55/92/131
s 12
f 47/48/91 45/43/79 54/47/127 56/51/132
s 18
f 15/61/133 24/62/134 57/63/135 58/64/136
s 13
f 24/77/93 42/80/96 59/83/137 57/84/138
s 12
f 42/37/69 44/40/72 60/45/139 59/46/140
s 18
f 27/65/141 15/61/133 58/64/136 61/66/142
s 12
f 44/40/72 46/44/80 62/50/143 60/45/139
s 18
f 39/67/144 27/65/141 61/66/142 63/68/145
s 12
f 46/44/80 48/49/92 64/52/146 62/50/143
s 16
f 48/87/113 39/86/112 63/89/147 64/90/148
