# This file uses centimeters as units for non-parametric coordinates.

mtllib Porte1.mtl
g default
v 8.574280 -15.534116 66.103154
v 11.404893 -15.534116 66.103154
v 8.574280 15.534116 66.103154
v 11.404893 15.534116 66.103154
v 8.574280 15.534116 72.266134
v 11.404893 15.534116 72.266134
v 8.574280 -15.534116 72.266134
v 11.404893 -15.534116 72.266134
v 8.574280 3.106824 66.103154
v 8.574280 3.106823 72.266134
v 11.404893 3.106823 72.266134
v 11.404893 3.106824 66.103154
v 8.574280 -2.485458 66.103154
v 8.574280 -2.485459 72.266134
v 11.404893 -2.485459 72.266134
v 11.404893 -2.485458 66.103154
v 8.574280 15.534116 67.643899
v 8.574280 3.106824 67.643899
v 8.574280 -2.485459 67.643899
v 8.574280 -15.534116 67.643899
v 11.404893 -15.534116 67.643899
v 11.404893 -2.485459 67.643899
v 11.404893 3.106824 67.643899
v 11.404893 15.534116 67.643899
v 8.574280 -15.534116 70.725401
v 8.574280 -2.485459 70.725401
v 8.574280 3.106823 70.725401
v 8.574280 15.534116 70.725401
v 11.404893 15.534116 70.725401
v 11.404893 3.106823 70.725401
v 11.404893 -2.485459 70.725401
v 11.404893 -15.534116 70.725401
v 15.995147 -2.485459 67.643899
v 15.995147 3.106824 67.643899
v 15.995147 -2.485459 70.725401
v 15.995147 3.106823 70.725401
v 14.618071 -2.485459 67.643899
v 14.618071 3.106824 67.643899
v 14.618071 3.106823 70.725401
v 14.618071 -2.485459 70.725401
v 14.618071 -2.485459 55.737861
v 14.618071 3.106824 55.737861
v 15.995147 -2.485459 55.737861
v 15.995147 3.106824 55.737861
vt 0.768022 0.187032
vt 0.789489 0.187032
vt 0.789489 0.196049
vt 0.768022 0.196049
vt 0.911111 0.204455
vt 0.920672 0.204455
vt 0.920672 0.206845
vt 0.911111 0.206845
vt 0.736225 0.199483
vt 0.757692 0.199483
vt 0.757692 0.208499
vt 0.736225 0.208499
vt 0.895212 0.211626
vt 0.904773 0.211626
vt 0.904773 0.214016
vt 0.895212 0.214016
vt 0.699128 0.187032
vt 0.707046 0.187032
vt 0.707046 0.200336
vt 0.699128 0.200336
vt 0.675334 0.194951
vt 0.662031 0.194951
vt 0.662031 0.187032
vt 0.675334 0.187032
vt 0.693706 0.194951
vt 0.681036 0.194951
vt 0.681036 0.187032
vt 0.693706 0.187032
vt 0.736225 0.187032
vt 0.757692 0.187032
vt 0.757692 0.195619
vt 0.736225 0.195619
vt 0.699128 0.206038
vt 0.707046 0.206038
vt 0.707046 0.218708
vt 0.699128 0.218708
vt 0.768022 0.199913
vt 0.789489 0.199913
vt 0.789489 0.208499
vt 0.768022 0.208499
vt 0.681036 0.218708
vt 0.681036 0.210789
vt 0.693706 0.210789
vt 0.693706 0.218708
vt 0.675334 0.218708
vt 0.675334 0.210789
vt 0.662031 0.218708
vt 0.662031 0.210789
vt 0.895212 0.204455
vt 0.904773 0.204455
vt 0.904773 0.206845
vt 0.895212 0.206845
vt 0.722884 0.200336
vt 0.722884 0.187032
vt 0.730803 0.187032
vt 0.730803 0.200336
vt 0.722884 0.206038
vt 0.730803 0.206038
vt 0.722884 0.218708
vt 0.730803 0.218708
vt 0.911111 0.211626
vt 0.920672 0.211626
vt 0.920672 0.214016
vt 0.911111 0.214016
vt 0.805521 0.220287
vt 0.799820 0.220287
vt 0.799820 0.204449
vt 0.805521 0.204449
vt 0.888477 0.228820
vt 0.884613 0.228820
vt 0.884613 0.204452
vt 0.888477 0.204452
vt 0.815718 0.209230
vt 0.815718 0.204449
vt 0.826572 0.204449
vt 0.826572 0.209230
vt 0.877878 0.239264
vt 0.874014 0.239264
vt 0.874014 0.214895
vt 0.877878 0.214895
vt 0.836917 0.227703
vt 0.836917 0.222922
vt 0.847770 0.222922
vt 0.847770 0.227703
vt 0.803684 0.197476
vt 0.799820 0.197476
vt 0.799820 0.187032
vt 0.803684 0.187032
vt 0.852421 0.222922
vt 0.852421 0.227703
vt 0.874014 0.204452
vt 0.877878 0.204452
vt 0.831223 0.204449
vt 0.831223 0.209230
vt 0.863817 0.265645
vt 0.858115 0.265645
vt 0.858115 0.204452
vt 0.863817 0.204452
vt 0.831223 0.227701
vt 0.826572 0.227701
vt 0.805521 0.281479
vt 0.799820 0.281479
vt 0.847770 0.204452
vt 0.852421 0.204452
vn 0.000000 0.000000 -1.000000
vn 0.000000 0.000000 -1.000000
vn 0.000000 0.000000 -1.000000
vn 0.000000 0.000000 -1.000000
vn 0.000000 1.000000 0.000000
vn 0.000000 1.000000 0.000000
vn 0.000000 1.000000 0.000000
vn 0.000000 1.000000 0.000000
vn 0.000000 0.000000 1.000000
vn 0.000000 0.000000 1.000000
vn 0.000000 0.000000 1.000000
vn 0.000000 0.000000 1.000000
vn 0.000000 -1.000000 0.000000
vn 0.000000 -1.000000 0.000000
vn 0.000000 -1.000000 0.000000
vn 0.000000 -1.000000 0.000000
vn 1.000000 0.000000 0.000000
vn 1.000000 0.000000 0.000000
vn 1.000000 0.000000 0.000000
vn 1.000000 0.000000 0.000000
vn -1.000000 0.000000 0.000000
vn -1.000000 0.000000 0.000000
vn -1.000000 0.000000 0.000000
vn -1.000000 0.000000 0.000000
vn -1.000000 0.000000 0.000000
vn -1.000000 0.000000 0.000000
vn -1.000000 0.000000 0.000000
vn -1.000000 0.000000 0.000000
vn 0.000000 0.000000 1.000000
vn 0.000000 0.000000 1.000000
vn 0.000000 0.000000 1.000000
vn 0.000000 0.000000 1.000000
vn 1.000000 0.000000 0.000000
vn 1.000000 0.000000 0.000000
vn 1.000000 0.000000 0.000000
vn 1.000000 0.000000 0.000000
vn 0.000000 0.000000 -1.000000
vn 0.000000 0.000000 -1.000000
vn 0.000000 0.000000 -1.000000
vn 0.000000 0.000000 -1.000000
vn -1.000000 0.000000 0.000000
vn -1.000000 0.000000 0.000000
vn -1.000000 0.000000 0.000000
vn -1.000000 0.000000 0.000000
vn -1.000000 0.000000 0.000000
vn -1.000000 0.000000 0.000000
vn -1.000000 0.000000 0.000000
vn -1.000000 0.000000 0.000000
vn 0.000000 -1.000000 0.000000
vn 0.000000 -1.000000 0.000000
vn 0.000000 -1.000000 0.000000
vn 0.000000 -1.000000 0.000000
vn 1.000000 0.000000 0.000000
vn 1.000000 0.000000 0.000000
vn 1.000000 0.000000 0.000000
vn 1.000000 0.000000 0.000000
vn 1.000000 0.000000 0.000000
vn 1.000000 0.000000 0.000000
vn 1.000000 0.000000 0.000000
vn 1.000000 0.000000 0.000000
vn 0.000000 1.000000 0.000000
vn 0.000000 1.000000 0.000000
vn 0.000000 1.000000 0.000000
vn 0.000000 1.000000 0.000000
vn 1.000000 0.000000 0.000000
vn 1.000000 0.000000 0.000000
vn 1.000000 0.000000 0.000000
vn 1.000000 0.000000 0.000000
vn 0.000000 0.000000 -1.000000
vn 0.000000 0.000000 -1.000000
vn 0.000000 0.000000 -1.000000
vn 0.000000 0.000000 -1.000000
vn 0.000000 -1.000000 0.000000
vn 0.000000 -1.000000 0.000000
vn 0.000000 -1.000000 0.000000
vn 0.000000 -1.000000 0.000000
vn 0.000000 0.000000 1.000000
vn 0.000000 0.000000 1.000000
vn 0.000000 0.000000 1.000000
vn 0.000000 0.000000 1.000000
vn 0.000000 1.000000 0.000000
vn 0.000000 1.000000 0.000000
vn 0.000000 1.000000 0.000000
vn 0.000000 1.000000 0.000000
vn 0.000000 0.000000 -1.000000
vn 0.000000 0.000000 -1.000000
vn 0.000000 0.000000 -1.000000
vn 0.000000 0.000000 -1.000000
vn 0.000000 1.000000 0.000000
vn 0.000000 1.000000 0.000000
vn 0.000000 0.000000 1.000000
vn 0.000000 0.000000 1.000000
vn 0.000000 -1.000000 0.000000
vn 0.000000 -1.000000 0.000000
vn -1.000000 0.000000 0.000000
vn -1.000000 0.000000 0.000000
vn -1.000000 0.000000 0.000000
vn -1.000000 0.000000 0.000000
vn 0.000000 -1.000000 0.000000
vn 0.000000 -1.000000 0.000000
vn 1.000000 0.000000 0.000000
vn 1.000000 0.000000 0.000000
vn 0.000000 1.000000 0.000000
vn 0.000000 1.000000 0.000000
s 1
g pCube1 Porte3
usemtl initialShadingGroup
f 1/1/1 13/4/2 16/3/3 2/2/4
s 2
f 3/5/5 17/8/6 24/7/7 4/6/8
s 3
f 14/9/9 7/12/10 8/11/11 15/10/12
s 4
f 20/13/13 1/16/14 2/15/15 21/14/16
s 5
f 2/17/17 16/20/18 22/19/19 21/18/20
s 6
f 19/21/21 13/24/22 1/23/23 20/22/24
f 17/25/25 3/28/26 9/27/27 18/26/28
s 3
f 5/29/29 10/32/30 11/31/31 6/30/32
s 5
f 12/33/33 4/36/34 24/35/35 23/34/36
s 1
f 9/37/37 3/40/38 4/39/39 12/38/40
s 6
f 18/26/28 9/27/27 13/24/22 19/21/21
s 3
f 10/32/30 14/9/9 15/10/12 11/31/31
s 5
f 16/20/18 12/33/33 23/34/36 22/19/19
s 1
f 13/4/2 9/37/37 12/38/40 16/3/3
s 6
f 10/41/41 5/44/42 28/43/43 27/42/44
f 14/45/45 10/41/41 27/42/44 26/46/46
f 7/47/47 14/45/45 26/46/46 25/48/48
s 4
f 7/49/49 25/52/50 32/51/51 8/50/52
s 5
f 31/53/53 15/56/54 8/55/55 32/54/56
f 30/57/57 11/58/58 15/56/54 31/53/53
f 29/59/59 6/60/60 11/58/58 30/57/57
s 2
f 28/61/61 5/64/62 6/63/63 29/62/64
s 6
f 27/42/44 28/43/43 17/25/25 18/26/28
f 26/46/46 27/42/44 18/26/28 19/21/21
f 20/22/24 25/48/48 26/46/46 19/21/21
s 4
f 21/14/16 32/51/51 25/52/50 20/13/13
s 5
f 22/19/19 31/53/53 32/54/56 21/18/20
s 9
f 34/65/65 36/68/66 35/67/67 33/66/68
s 5
f 29/59/59 30/57/57 23/34/36 24/35/35
s 2
f 28/61/61 29/62/64 24/7/7 17/8/6
s off
f 23/69/69 38/72/70 37/71/71 22/70/72
s 10
f 22/73/73 37/76/74 40/75/75 31/74/76
s 11
f 31/77/77 40/80/78 39/79/79 30/78/80
s 12
f 30/81/81 39/84/82 38/83/83 23/82/84
s off
f 42/85/85 44/88/86 43/87/87 41/86/88
s 12
f 39/84/82 36/90/89 34/89/90 38/83/83
s 11
f 40/80/78 35/92/91 36/91/92 39/79/79
s 10
f 37/76/74 33/94/93 35/93/94 40/75/75
s off
f 38/95/95 42/98/96 41/97/97 37/96/98
s 10
f 37/76/74 41/100/99 43/99/100 33/94/93
s 9
f 33/66/68 43/102/101 44/101/102 34/65/65
s 12
f 34/89/90 44/104/103 42/103/104 38/83/83
g default
v -8.993764 -152.000000 76.000000
v 8.993764 -152.000000 76.000000
v -8.993764 152.000000 76.000000
v 8.993764 152.000000 76.000000
v -8.993764 152.000000 -76.000000
v 8.993764 152.000000 -76.000000
v -8.993764 -152.000000 -76.000000
v 8.993764 -152.000000 -76.000000
v -8.993764 152.000000 60.799996
v -8.993764 -152.000000 60.799996
v 8.993764 -152.000000 60.799996
v 8.993764 152.000000 60.799996
v -8.993764 -121.599993 76.000000
v -8.993764 -121.599993 60.799996
v -8.993764 -121.599993 -76.000000
v 8.993764 -121.599993 -76.000000
v 8.993764 -121.599993 60.799992
v 8.993764 -121.599993 76.000000
v -8.993764 124.639999 -76.000000
v -8.993764 124.639999 60.799992
v -8.993764 124.639990 76.000000
v 8.993764 124.639990 76.000000
v 8.993764 124.639990 60.799992
v 8.993764 124.639999 -76.000000
v -8.993764 -152.000000 -62.319999
v -8.993764 -121.599993 -62.319995
v -8.993764 124.639999 -62.319999
v -8.993764 152.000000 -62.319995
v 8.993764 152.000000 -62.319995
v 8.993764 124.639999 -62.319999
v 8.993764 -121.599984 -62.319999
v 8.993764 -152.000000 -62.319999
v -5.422404 -121.599993 -62.319995
v -5.422404 124.639999 -62.319999
v -5.422404 -121.599993 60.799996
v -5.422404 124.639999 60.799992
v 5.422404 124.639999 -62.319999
v 5.422404 -121.599984 -62.319999
v 5.422404 124.639990 60.799992
v 5.422404 -121.599993 60.799992
vt 0.004883 0.004883
vt 0.054083 0.004883
vt 0.054083 0.054088
vt 0.004883 0.054088
vt 0.452678 0.004883
vt 0.452678 0.054088
vt 0.054083 0.452669
vt 0.004883 0.452669
vt 0.496957 0.054088
vt 0.496957 0.004883
vt 0.054083 0.496957
vt 0.004883 0.496957
vt 0.496957 0.452669
vt 0.452678 0.452669
vt 0.452678 0.496957
vt 0.496957 0.496957
vt 0.995117 0.054088
vt 0.945912 0.054088
vt 0.945912 0.004883
vt 0.995117 0.004883
vt 0.995117 0.452670
vt 0.945912 0.452670
vt 0.547331 0.054088
vt 0.547331 0.004883
vt 0.945912 0.496957
vt 0.995117 0.496957
vt 0.503043 0.004883
vt 0.503043 0.054088
vt 0.547331 0.496957
vt 0.547331 0.452670
vt 0.503043 0.452670
vt 0.503043 0.496957
vt 0.004883 0.902161
vt 0.004883 0.503581
vt 0.403463 0.503581
vt 0.403463 0.902161
vt 0.412950 0.503581
vt 0.811530 0.503581
vt 0.811530 0.902161
vt 0.412950 0.902161
vt 0.556039 0.060712
vt 0.675735 0.060712
vt 0.675735 0.072680
vt 0.556039 0.072680
vt 0.675735 0.169637
vt 0.556039 0.169637
vt 0.675735 0.180408
vt 0.556039 0.180408
vt 0.683229 0.168439
vt 0.802925 0.168439
vt 0.802925 0.180408
vt 0.683229 0.180408
vt 0.683229 0.071485
vt 0.802925 0.071485
vt 0.683229 0.060712
vt 0.802925 0.060712
vt 0.598436 0.283987
vt 0.598436 0.187032
vt 0.622200 0.187032
vt 0.622200 0.283987
vt 0.630233 0.283986
vt 0.630233 0.187032
vt 0.653998 0.187032
vt 0.653998 0.283986
vt 0.436715 0.060712
vt 0.436715 0.157668
vt 0.412950 0.157668
vt 0.412950 0.060712
vt 0.436715 0.164292
vt 0.436715 0.261249
vt 0.412950 0.261249
vt 0.412950 0.164292
vt 0.238064 0.060712
vt 0.407340 0.060712
vt 0.407340 0.077639
vt 0.238064 0.077639
vt 0.407340 0.214753
vt 0.238064 0.214753
vt 0.407340 0.229988
vt 0.238064 0.229988
vt 0.063178 0.213063
vt 0.232448 0.213063
vt 0.232448 0.229994
vt 0.063178 0.229994
vt 0.063178 0.075950
vt 0.232448 0.075950
vt 0.063178 0.060712
vt 0.232448 0.060712
vt 0.810419 0.197825
vt 0.810419 0.060712
vt 0.844028 0.060712
vt 0.844028 0.197825
vt 0.852815 0.197827
vt 0.852815 0.060712
vt 0.886424 0.060712
vt 0.886424 0.197827
vt 0.589647 0.187032
vt 0.589647 0.324148
vt 0.556039 0.324148
vt 0.556039 0.187032
vt 0.928820 0.060712
vt 0.928820 0.197830
vt 0.895212 0.197830
vt 0.895212 0.060712
vn 0.000000 0.000000 1.000000
vn 0.000000 0.000000 1.000000
vn 0.000000 0.000000 1.000000
vn 0.000000 0.000000 1.000000
vn 0.000000 1.000000 0.000000
vn 0.000000 1.000000 0.000000
vn 0.000000 1.000000 0.000000
vn 0.000000 1.000000 0.000000
vn 0.000000 0.000000 -1.000000
vn 0.000000 0.000000 -1.000000
vn 0.000000 0.000000 -1.000000
vn 0.000000 0.000000 -1.000000
vn 0.000000 -1.000000 0.000000
vn 0.000000 -1.000000 0.000000
vn 0.000000 -1.000000 0.000000
vn 0.000000 -1.000000 0.000000
vn 1.000000 0.000000 0.000000
vn 1.000000 0.000000 0.000000
vn 1.000000 0.000000 0.000000
vn 1.000000 0.000000 0.000000
vn -1.000000 0.000000 0.000000
vn -1.000000 0.000000 0.000000
vn -1.000000 0.000000 0.000000
vn -1.000000 0.000000 0.000000
vn -1.000000 0.000000 0.000000
vn -1.000000 0.000000 0.000000
vn -1.000000 0.000000 0.000000
vn -1.000000 0.000000 0.000000
vn 0.000000 -1.000000 0.000000
vn 0.000000 -1.000000 0.000000
vn 0.000000 -1.000000 0.000000
vn 0.000000 -1.000000 0.000000
vn 1.000000 0.000000 0.000000
vn 1.000000 0.000000 0.000000
vn 1.000000 0.000000 0.000000
vn 1.000000 0.000000 0.000000
vn 0.000000 1.000000 0.000000
vn 0.000000 1.000000 0.000000
vn 0.000000 1.000000 0.000000
vn 0.000000 1.000000 0.000000
vn -1.000000 0.000000 0.000000
vn -1.000000 0.000000 0.000000
vn -1.000000 0.000000 0.000000
vn -1.000000 0.000000 0.000000
vn -1.000000 0.000000 0.000000
vn -1.000000 0.000000 0.000000
vn -1.000000 0.000000 0.000000
vn -1.000000 0.000000 0.000000
vn 0.000000 0.000000 -1.000000
vn 0.000000 0.000000 -1.000000
vn 0.000000 0.000000 -1.000000
vn 0.000000 0.000000 -1.000000
vn 1.000000 0.000000 0.000000
vn 1.000000 0.000000 0.000000
vn 1.000000 0.000000 0.000000
vn 1.000000 0.000000 0.000000
vn 1.000000 0.000000 0.000000
vn 1.000000 0.000000 0.000000
vn 1.000000 0.000000 0.000000
vn 1.000000 0.000000 0.000000
vn 0.000000 0.000000 1.000000
vn 0.000000 0.000000 1.000000
vn 0.000000 0.000000 1.000000
vn 0.000000 0.000000 1.000000
vn -1.000000 0.000000 0.000000
vn -1.000000 0.000000 0.000000
vn -1.000000 0.000000 0.000000
vn -1.000000 0.000000 0.000000
vn 1.000000 0.000000 0.000000
vn 1.000000 0.000000 0.000000
vn 1.000000 0.000000 0.000000
vn 1.000000 0.000000 0.000000
vn 0.000000 0.000000 1.000000
vn 0.000000 0.000000 1.000000
vn 0.000000 0.000000 1.000000
vn 0.000000 0.000000 1.000000
vn 0.000000 1.000000 0.000000
vn 0.000000 1.000000 0.000000
vn 0.000000 1.000000 0.000000
vn 0.000000 1.000000 0.000000
vn 0.000000 -0.000000 -1.000000
vn 0.000000 -0.000000 -1.000000
vn 0.000000 -0.000000 -1.000000
vn 0.000000 -0.000000 -1.000000
vn 0.000000 -1.000000 0.000000
vn 0.000000 -1.000000 0.000000
vn 0.000000 -1.000000 0.000000
vn 0.000000 -1.000000 0.000000
vn 0.000000 0.000000 1.000000
vn 0.000000 0.000000 1.000000
vn 0.000000 0.000000 1.000000
vn 0.000000 0.000000 1.000000
vn 0.000000 -1.000000 -0.000000
vn 0.000000 -1.000000 -0.000000
vn 0.000000 -1.000000 -0.000000
vn 0.000000 -1.000000 -0.000000
vn 0.000000 0.000000 -1.000000
vn 0.000000 0.000000 -1.000000
vn 0.000000 0.000000 -1.000000
vn 0.000000 0.000000 -1.000000
vn 0.000000 1.000000 0.000000
vn 0.000000 1.000000 0.000000
vn 0.000000 1.000000 0.000000
vn 0.000000 1.000000 0.000000
s 1
g Porte3 PROPS_Porte_Panneau
usemtl initialShadingGroup
f 45/177/105 46/178/106 62/179/107 57/180/108
s 2
f 47/145/109 48/146/110 56/147/111 53/148/112
s 3
f 59/185/113 60/186/114 52/187/115 51/188/116
s 4
f 54/153/117 55/154/118 46/155/119 45/156/120
s 5
f 46/105/121 55/106/122 61/107/123 62/108/124
s 6
f 57/121/125 58/122/126 54/123/127 45/124/128
f 51/131/129 69/128/130 70/127/131 59/132/132
s 4
f 51/159/133 52/160/134 76/158/135 69/157/136
s 5
f 60/113/137 75/110/138 76/109/139 52/114/140
s 2
f 72/150/141 73/149/142 50/151/143 49/152/144
s 6
f 53/129/145 64/126/146 65/125/147 47/130/148
f 63/135/149 71/134/150 72/133/151 49/136/152
s 3
f 49/191/153 50/192/154 68/190/155 63/189/156
s 5
f 73/119/157 74/118/158 68/117/159 50/120/160
f 66/112/161 67/111/162 56/115/163 48/116/164
s 1
f 65/182/165 66/181/166 48/183/167 47/184/168
s 6
f 59/132/132 70/127/131 71/134/150 63/135/149
f 65/125/147 64/126/146 58/122/126 57/121/125
s 1
f 57/180/108 62/179/107 66/181/166 65/182/165
s 5
f 62/108/124 61/107/123 67/111/162 66/112/161
f 68/117/159 74/118/158 75/110/138 60/113/137
s 3
f 63/189/156 68/190/155 60/186/114 59/185/113
s 6
f 70/127/131 69/128/130 54/123/127 58/122/126
s off
f 78/137/169 77/138/170 79/139/171 80/140/172
s 6
f 72/133/151 71/134/150 64/126/146 53/129/145
s 2
f 53/148/112 56/147/111 73/149/142 72/150/141
s 5
f 56/115/163 67/111/162 74/118/158 73/119/157
s off
f 82/141/173 81/142/174 83/143/175 84/144/176
s 5
f 76/109/139 75/110/138 61/107/123 55/106/122
s 4
f 69/157/136 76/158/135 55/154/118 54/153/117
s off
f 71/193/177 70/194/178 77/195/179 78/196/180
f 70/161/181 58/162/182 79/163/183 77/164/184
f 58/197/185 64/198/186 80/199/187 79/200/188
f 64/165/189 71/166/190 78/167/191 80/168/192
f 75/201/193 74/202/194 81/203/195 82/204/196
f 74/169/197 67/170/198 83/171/199 81/172/200
f 67/205/201 61/206/202 84/207/203 83/208/204
f 61/173/205 75/174/206 82/175/207 84/176/208
