# This file uses centimeters as units for non-parametric coordinates.

mtllib Porte2.mtl
g default
v 8.574280 -15.534116 -66.103155
v 11.404893 -15.534116 -66.103155
v 8.574280 15.534116 -66.103155
v 11.404893 15.534116 -66.103155
v 8.574280 15.534116 -72.266135
v 11.404893 15.534116 -72.266135
v 8.574280 -15.534116 -72.266135
v 11.404893 -15.534116 -72.266135
v 8.574280 3.106824 -66.103155
v 8.574280 3.106823 -72.266135
v 11.404893 3.106823 -72.266135
v 11.404893 3.106824 -66.103155
v 8.574280 -2.485458 -66.103155
v 8.574280 -2.485459 -72.266135
v 11.404893 -2.485459 -72.266135
v 11.404893 -2.485458 -66.103155
v 8.574280 15.534116 -67.643900
v 8.574280 3.106824 -67.643900
v 8.574280 -2.485459 -67.643900
v 8.574280 -15.534116 -67.643900
v 11.404893 -15.534116 -67.643900
v 11.404893 -2.485459 -67.643900
v 11.404893 3.106824 -67.643900
v 11.404893 15.534116 -67.643900
v 8.574280 -15.534116 -70.725396
v 8.574280 -2.485459 -70.725396
v 8.574280 3.106823 -70.725396
v 8.574280 15.534116 -70.725396
v 11.404893 15.534116 -70.725396
v 11.404893 3.106823 -70.725396
v 11.404893 -2.485459 -70.725396
v 11.404893 -15.534116 -70.725396
v 15.995147 -2.485459 -67.643900
v 15.995147 3.106824 -67.643900
v 15.995147 -2.485459 -70.725396
v 15.995147 3.106823 -70.725396
v 14.618071 -2.485459 -67.643900
v 14.618071 3.106824 -67.643900
v 14.618071 3.106823 -70.725396
v 14.618071 -2.485459 -70.725396
v 14.618071 -2.485459 -55.737868
v 14.618071 3.106824 -55.737868
v 15.995147 -2.485459 -55.737868
v 15.995147 3.106824 -55.737868
vt 0.662031 0.187032
vt 0.669949 0.187032
vt 0.669949 0.200336
vt 0.662031 0.200336
vt 0.685788 0.187032
vt 0.685788 0.200336
vt 0.669949 0.206038
vt 0.662031 0.206038
vt 0.693706 0.187032
vt 0.693706 0.200336
vt 0.669949 0.218708
vt 0.662031 0.218708
vt 0.685788 0.206038
vt 0.693706 0.206038
vt 0.685788 0.218708
vt 0.693706 0.218708
vt 0.722884 0.200336
vt 0.722884 0.187032
vt 0.730803 0.187032
vt 0.730803 0.200336
vt 0.707046 0.200336
vt 0.707046 0.187032
vt 0.722884 0.206038
vt 0.730803 0.206038
vt 0.707046 0.206038
vt 0.699128 0.187032
vt 0.699128 0.200336
vt 0.722884 0.218708
vt 0.730803 0.218708
vt 0.707046 0.218708
vt 0.699128 0.206038
vt 0.699128 0.218708
vt 0.858518 0.220286
vt 0.852815 0.220286
vt 0.852815 0.204449
vt 0.858518 0.204449
vt 0.858518 0.281472
vt 0.852815 0.281472
vt 0.816120 0.265644
vt 0.810419 0.265644
vt 0.810419 0.204452
vt 0.816120 0.204452
vt 0.905811 0.204452
vt 0.915372 0.204452
vt 0.915372 0.206843
vt 0.905811 0.206843
vt 0.905811 0.211623
vt 0.915372 0.211623
vt 0.915372 0.214014
vt 0.905811 0.214014
vt 0.889912 0.211623
vt 0.899473 0.211623
vt 0.899473 0.214014
vt 0.889912 0.214014
vt 0.889912 0.206843
vt 0.899473 0.206843
vt 0.889912 0.204452
vt 0.899473 0.204452
vt 0.868714 0.209230
vt 0.868714 0.204449
vt 0.879567 0.204449
vt 0.879567 0.209230
vt 0.884219 0.204449
vt 0.884219 0.209230
vt 0.884219 0.227700
vt 0.879567 0.227700
vt 0.789220 0.219905
vt 0.789220 0.215125
vt 0.800074 0.215125
vt 0.800074 0.219905
vt 0.804725 0.215125
vt 0.804725 0.219905
vt 0.800074 0.196654
vt 0.804725 0.196654
vt 0.736225 0.187032
vt 0.757692 0.187032
vt 0.757692 0.196049
vt 0.736225 0.196049
vt 0.757692 0.199913
vt 0.736225 0.199913
vt 0.757692 0.208499
vt 0.736225 0.208499
vt 0.768022 0.199484
vt 0.789488 0.199484
vt 0.789488 0.208500
vt 0.768022 0.208500
vt 0.768022 0.195619
vt 0.789488 0.195619
vt 0.768022 0.187032
vt 0.789488 0.187032
vt 0.840781 0.228820
vt 0.836917 0.228820
vt 0.836917 0.204452
vt 0.840781 0.204452
vt 0.830182 0.239260
vt 0.826317 0.239260
vt 0.826317 0.214894
vt 0.830182 0.214894
vt 0.826317 0.204452
vt 0.830182 0.204452
vt 0.925574 0.214896
vt 0.921710 0.214896
vt 0.921710 0.204452
vt 0.925574 0.204452
vn 0.000000 0.000000 1.000000
vn 0.000000 0.000000 1.000000
vn 0.000000 0.000000 1.000000
vn 0.000000 0.000000 1.000000
vn 0.000000 1.000000 0.000000
vn 0.000000 1.000000 0.000000
vn 0.000000 1.000000 0.000000
vn 0.000000 1.000000 0.000000
vn 0.000000 0.000000 -1.000000
vn 0.000000 0.000000 -1.000000
vn 0.000000 0.000000 -1.000000
vn 0.000000 0.000000 -1.000000
vn 0.000000 -1.000000 0.000000
vn 0.000000 -1.000000 0.000000
vn 0.000000 -1.000000 0.000000
vn 0.000000 -1.000000 0.000000
vn 1.000000 0.000000 0.000000
vn 1.000000 0.000000 0.000000
vn 1.000000 0.000000 0.000000
vn 1.000000 0.000000 0.000000
vn -1.000000 0.000000 0.000000
vn -1.000000 0.000000 0.000000
vn -1.000000 0.000000 0.000000
vn -1.000000 0.000000 0.000000
vn -1.000000 0.000000 0.000000
vn -1.000000 0.000000 0.000000
vn -1.000000 0.000000 0.000000
vn -1.000000 0.000000 0.000000
vn 0.000000 0.000000 -1.000000
vn 0.000000 0.000000 -1.000000
vn 0.000000 0.000000 -1.000000
vn 0.000000 0.000000 -1.000000
vn 1.000000 0.000000 0.000000
vn 1.000000 0.000000 0.000000
vn 1.000000 0.000000 0.000000
vn 1.000000 0.000000 0.000000
vn 0.000000 0.000000 1.000000
vn 0.000000 0.000000 1.000000
vn 0.000000 0.000000 1.000000
vn 0.000000 0.000000 1.000000
vn -1.000000 0.000000 0.000000
vn -1.000000 0.000000 0.000000
vn -1.000000 0.000000 0.000000
vn -1.000000 0.000000 0.000000
vn -1.000000 0.000000 0.000000
vn -1.000000 0.000000 0.000000
vn -1.000000 0.000000 0.000000
vn -1.000000 0.000000 0.000000
vn 0.000000 -1.000000 0.000000
vn 0.000000 -1.000000 0.000000
vn 0.000000 -1.000000 0.000000
vn 0.000000 -1.000000 0.000000
vn 1.000000 0.000000 0.000000
vn 1.000000 0.000000 0.000000
vn 1.000000 0.000000 0.000000
vn 1.000000 0.000000 0.000000
vn 1.000000 0.000000 0.000000
vn 1.000000 0.000000 0.000000
vn 1.000000 0.000000 0.000000
vn 1.000000 0.000000 0.000000
vn 0.000000 1.000000 0.000000
vn 0.000000 1.000000 0.000000
vn 0.000000 1.000000 0.000000
vn 0.000000 1.000000 0.000000
vn 1.000000 0.000000 0.000000
vn 1.000000 0.000000 0.000000
vn 1.000000 0.000000 0.000000
vn 1.000000 0.000000 0.000000
vn 0.000000 0.000000 1.000000
vn 0.000000 0.000000 1.000000
vn 0.000000 0.000000 1.000000
vn 0.000000 0.000000 1.000000
vn 0.000000 -1.000000 0.000000
vn 0.000000 -1.000000 0.000000
vn 0.000000 -1.000000 0.000000
vn 0.000000 -1.000000 0.000000
vn 0.000000 0.000000 -1.000000
vn 0.000000 0.000000 -1.000000
vn 0.000000 0.000000 -1.000000
vn 0.000000 0.000000 -1.000000
vn 0.000000 1.000000 -0.000000
vn 0.000000 1.000000 -0.000000
vn 0.000000 1.000000 -0.000000
vn 0.000000 1.000000 -0.000000
vn 0.000000 0.000000 1.000000
vn 0.000000 0.000000 1.000000
vn 0.000000 0.000000 1.000000
vn 0.000000 0.000000 1.000000
vn 0.000000 1.000000 -0.000000
vn 0.000000 1.000000 -0.000000
vn 0.000000 0.000000 -1.000000
vn 0.000000 0.000000 -1.000000
vn 0.000000 -1.000000 0.000000
vn 0.000000 -1.000000 0.000000
vn -1.000000 0.000000 0.000000
vn -1.000000 0.000000 0.000000
vn -1.000000 0.000000 0.000000
vn -1.000000 0.000000 0.000000
vn 0.000000 -1.000000 0.000000
vn 0.000000 -1.000000 0.000000
vn 1.000000 0.000000 0.000000
vn 1.000000 0.000000 0.000000
vn 0.000000 1.000000 0.000000
vn 0.000000 1.000000 0.000000
s 1
g pCube1 Porte2
usemtl initialShadingGroup
f 1/75/1 2/76/2 16/77/3 13/78/4
s 2
f 3/43/5 4/44/6 24/45/7 17/46/8
s 3
f 14/83/9 15/84/10 8/85/11 7/86/12
s 4
f 20/51/13 21/52/14 2/53/15 1/54/16
s 5
f 2/1/17 21/2/18 22/3/19 16/4/20
s 6
f 19/17/21 20/18/22 1/19/23 13/20/24
f 17/28/25 18/23/26 9/24/27 3/29/28
s 3
f 5/89/29 6/90/30 11/88/31 10/87/32
s 5
f 12/8/33 23/7/34 24/11/35 4/12/36
s 1
f 9/80/37 12/79/38 4/81/39 3/82/40
s 6
f 18/23/26 19/17/21 13/20/24 9/24/27
s 3
f 10/87/32 11/88/31 15/84/10 14/83/9
s 5
f 16/4/20 22/3/19 23/7/34 12/8/33
s 1
f 13/78/4 16/77/3 12/79/38 9/80/37
s 6
f 10/31/41 27/25/42 28/30/43 5/32/44
f 14/27/45 26/21/46 27/25/42 10/31/41
f 7/26/47 25/22/48 26/21/46 14/27/45
s 4
f 7/57/49 8/58/50 32/56/51 25/55/52
s 5
f 31/6/53 32/5/54 8/9/55 15/10/56
f 30/13/57 31/6/53 15/10/56 11/14/58
f 29/15/59 30/13/57 11/14/58 6/16/60
s 2
f 28/47/61 29/48/62 6/49/63 5/50/64
s 6
f 27/25/42 18/23/26 17/28/25 28/30/43
f 26/21/46 19/17/21 18/23/26 27/25/42
f 20/18/22 19/17/21 26/21/46 25/22/48
s 4
f 21/52/14 20/51/13 25/55/52 32/56/51
s 5
f 22/3/19 21/2/18 32/5/54 31/6/53
s 9
f 34/33/65 33/34/66 35/35/67 36/36/68
s 5
f 29/15/59 24/11/35 23/7/34 30/13/57
s 2
f 28/47/61 17/46/8 24/45/7 29/48/62
s off
f 23/91/69 22/92/70 37/93/71 38/94/72
s 10
f 22/59/73 31/60/74 40/61/75 37/62/76
s 11
f 31/95/77 30/96/78 39/97/79 40/98/80
s 12
f 30/67/81 23/68/82 38/69/83 39/70/84
s off
f 42/101/85 41/102/86 43/103/87 44/104/88
s 12
f 39/70/84 38/69/83 34/71/89 36/72/90
s 11
f 40/98/80 39/97/79 36/99/91 35/100/92
s 10
f 37/62/76 40/61/75 35/63/93 33/64/94
s off
f 38/39/95 37/40/96 41/41/97 42/42/98
s 10
f 37/62/76 33/64/94 43/65/99 41/66/100
s 9
f 33/34/66 34/33/65 44/37/101 43/38/102
s 12
f 34/71/89 38/69/83 42/73/103 44/74/104
g default
v -8.993763 -152.000000 76.000000
v 8.993763 -152.000000 76.000000
v -8.993763 152.000000 76.000000
v 8.993763 152.000000 76.000000
v -8.993763 152.000000 -76.000000
v 8.993763 152.000000 -76.000000
v -8.993763 -152.000000 -76.000000
v 8.993763 -152.000000 -76.000000
v -8.993763 152.000000 60.799996
v -8.993763 -152.000000 60.799996
v 8.993763 -152.000000 60.799996
v 8.993763 152.000000 60.799996
v -8.993763 -121.599993 76.000000
v -8.993763 -121.599993 60.799996
v -8.993763 -121.599993 -76.000000
v 8.993763 -121.599993 -76.000000
v 8.993763 -121.599993 60.799992
v 8.993763 -121.599993 76.000000
v -8.993763 124.639999 -76.000000
v -8.993763 124.639999 60.799992
v -8.993763 124.639990 76.000000
v 8.993763 124.639990 76.000000
v 8.993763 124.639990 60.799992
v 8.993763 124.639999 -76.000000
v -8.993763 -152.000000 -62.319999
v -8.993763 -121.599993 -62.319995
v -8.993763 124.639999 -62.319999
v -8.993763 152.000000 -62.319995
v 8.993763 152.000000 -62.319995
v 8.993763 124.639999 -62.319999
v 8.993763 -121.599984 -62.319999
v 8.993763 -152.000000 -62.319999
v -5.422404 -121.599993 -62.319995
v -5.422404 124.639999 -62.319999
v -5.422404 -121.599993 60.799996
v -5.422404 124.639999 60.799992
v 5.422404 124.639999 -62.319999
v 5.422404 -121.599984 -62.319999
v 5.422404 124.639990 60.799992
v 5.422404 -121.599993 60.799992
vt 0.004883 0.004883
vt 0.054083 0.004883
vt 0.054083 0.054088
vt 0.004883 0.054088
vt 0.452678 0.004883
vt 0.452678 0.054088
vt 0.054083 0.452669
vt 0.004883 0.452669
vt 0.496957 0.054088
vt 0.496957 0.004883
vt 0.054083 0.496957
vt 0.004883 0.496957
vt 0.496957 0.452669
vt 0.452678 0.452669
vt 0.452678 0.496957
vt 0.496957 0.496957
vt 0.995117 0.054088
vt 0.945912 0.054088
vt 0.945912 0.004883
vt 0.995117 0.004883
vt 0.995117 0.452670
vt 0.945912 0.452670
vt 0.547331 0.054088
vt 0.547331 0.004883
vt 0.945912 0.496957
vt 0.995117 0.496957
vt 0.503043 0.004883
vt 0.503043 0.054088
vt 0.547331 0.496957
vt 0.547331 0.452670
vt 0.503043 0.452670
vt 0.503043 0.496957
vt 0.004883 0.902161
vt 0.004883 0.503581
vt 0.403463 0.503581
vt 0.403463 0.902161
vt 0.412950 0.503581
vt 0.811530 0.503581
vt 0.811530 0.902161
vt 0.412950 0.902161
vt 0.556039 0.060712
vt 0.675735 0.060712
vt 0.675735 0.072680
vt 0.556039 0.072680
vt 0.675735 0.169637
vt 0.556039 0.169637
vt 0.675735 0.180408
vt 0.556039 0.180408
vt 0.683229 0.168439
vt 0.802925 0.168439
vt 0.802925 0.180408
vt 0.683229 0.180408
vt 0.683229 0.071485
vt 0.802925 0.071485
vt 0.683229 0.060712
vt 0.802925 0.060712
vt 0.598436 0.283987
vt 0.598436 0.187032
vt 0.622200 0.187032
vt 0.622200 0.283987
vt 0.630233 0.283986
vt 0.630233 0.187032
vt 0.653998 0.187032
vt 0.653998 0.283986
vt 0.436715 0.164294
vt 0.436715 0.261249
vt 0.412950 0.261249
vt 0.412950 0.164294
vt 0.436715 0.060712
vt 0.436715 0.157669
vt 0.412950 0.157669
vt 0.412950 0.060712
vt 0.063178 0.060712
vt 0.232454 0.060712
vt 0.232454 0.077639
vt 0.063178 0.077639
vt 0.232454 0.214753
vt 0.063178 0.214753
vt 0.232454 0.229988
vt 0.063178 0.229988
vt 0.238064 0.213063
vt 0.407334 0.213063
vt 0.407334 0.229994
vt 0.238064 0.229994
vt 0.238064 0.075950
vt 0.407334 0.075950
vt 0.238064 0.060712
vt 0.407334 0.060712
vt 0.852815 0.197825
vt 0.852815 0.060712
vt 0.886424 0.060712
vt 0.886424 0.197825
vt 0.810419 0.197827
vt 0.810419 0.060712
vt 0.844027 0.060712
vt 0.844027 0.197827
vt 0.928820 0.060712
vt 0.928820 0.197828
vt 0.895212 0.197828
vt 0.895212 0.060712
vt 0.589647 0.187032
vt 0.589647 0.324151
vt 0.556039 0.324151
vt 0.556039 0.187032
vn 0.000000 0.000000 1.000000
vn 0.000000 0.000000 1.000000
vn 0.000000 0.000000 1.000000
vn 0.000000 0.000000 1.000000
vn 0.000000 1.000000 0.000000
vn 0.000000 1.000000 0.000000
vn 0.000000 1.000000 0.000000
vn 0.000000 1.000000 0.000000
vn 0.000000 0.000000 -1.000000
vn 0.000000 0.000000 -1.000000
vn 0.000000 0.000000 -1.000000
vn 0.000000 0.000000 -1.000000
vn 0.000000 -1.000000 0.000000
vn 0.000000 -1.000000 0.000000
vn 0.000000 -1.000000 0.000000
vn 0.000000 -1.000000 0.000000
vn 1.000000 0.000000 0.000000
vn 1.000000 0.000000 0.000000
vn 1.000000 0.000000 0.000000
vn 1.000000 0.000000 0.000000
vn -1.000000 0.000000 0.000000
vn -1.000000 0.000000 0.000000
vn -1.000000 0.000000 0.000000
vn -1.000000 0.000000 0.000000
vn -1.000000 0.000000 0.000000
vn -1.000000 0.000000 0.000000
vn -1.000000 0.000000 0.000000
vn -1.000000 0.000000 0.000000
vn 0.000000 -1.000000 0.000000
vn 0.000000 -1.000000 0.000000
vn 0.000000 -1.000000 0.000000
vn 0.000000 -1.000000 0.000000
vn 1.000000 0.000000 0.000000
vn 1.000000 0.000000 0.000000
vn 1.000000 0.000000 0.000000
vn 1.000000 0.000000 0.000000
vn 0.000000 1.000000 0.000000
vn 0.000000 1.000000 0.000000
vn 0.000000 1.000000 0.000000
vn 0.000000 1.000000 0.000000
vn -1.000000 0.000000 0.000000
vn -1.000000 0.000000 0.000000
vn -1.000000 0.000000 0.000000
vn -1.000000 0.000000 0.000000
vn -1.000000 0.000000 0.000000
vn -1.000000 0.000000 0.000000
vn -1.000000 0.000000 0.000000
vn -1.000000 0.000000 0.000000
vn 0.000000 0.000000 -1.000000
vn 0.000000 0.000000 -1.000000
vn 0.000000 0.000000 -1.000000
vn 0.000000 0.000000 -1.000000
vn 1.000000 0.000000 0.000000
vn 1.000000 0.000000 0.000000
vn 1.000000 0.000000 0.000000
vn 1.000000 0.000000 0.000000
vn 1.000000 0.000000 0.000000
vn 1.000000 0.000000 0.000000
vn 1.000000 0.000000 0.000000
vn 1.000000 0.000000 0.000000
vn 0.000000 0.000000 1.000000
vn 0.000000 0.000000 1.000000
vn 0.000000 0.000000 1.000000
vn 0.000000 0.000000 1.000000
vn -1.000000 0.000000 0.000000
vn -1.000000 0.000000 0.000000
vn -1.000000 0.000000 0.000000
vn -1.000000 0.000000 0.000000
vn 1.000000 0.000000 0.000000
vn 1.000000 0.000000 0.000000
vn 1.000000 0.000000 0.000000
vn 1.000000 0.000000 0.000000
vn 0.000000 0.000000 1.000000
vn 0.000000 0.000000 1.000000
vn 0.000000 0.000000 1.000000
vn 0.000000 0.000000 1.000000
vn 0.000000 1.000000 0.000000
vn 0.000000 1.000000 0.000000
vn 0.000000 1.000000 0.000000
vn 0.000000 1.000000 0.000000
vn 0.000000 -0.000000 -1.000000
vn 0.000000 -0.000000 -1.000000
vn 0.000000 -0.000000 -1.000000
vn 0.000000 -0.000000 -1.000000
vn 0.000000 -1.000000 0.000000
vn 0.000000 -1.000000 0.000000
vn 0.000000 -1.000000 0.000000
vn 0.000000 -1.000000 0.000000
vn 0.000000 0.000000 1.000000
vn 0.000000 0.000000 1.000000
vn 0.000000 0.000000 1.000000
vn 0.000000 0.000000 1.000000
vn 0.000000 -1.000000 -0.000000
vn 0.000000 -1.000000 -0.000000
vn 0.000000 -1.000000 -0.000000
vn 0.000000 -1.000000 -0.000000
vn 0.000000 0.000000 -1.000000
vn 0.000000 0.000000 -1.000000
vn 0.000000 0.000000 -1.000000
vn 0.000000 0.000000 -1.000000
vn 0.000000 1.000000 0.000000
vn 0.000000 1.000000 0.000000
vn 0.000000 1.000000 0.000000
vn 0.000000 1.000000 0.000000
s 1
g Porte2 PROPS_Porte_Panneau
usemtl initialShadingGroup
f 45/177/105 46/178/106 62/179/107 57/180/108
s 2
f 47/145/109 48/146/110 56/147/111 53/148/112
s 3
f 59/185/113 60/186/114 52/187/115 51/188/116
s 4
f 54/153/117 55/154/118 46/155/119 45/156/120
s 5
f 46/105/121 55/106/122 61/107/123 62/108/124
s 6
f 57/121/125 58/122/126 54/123/127 45/124/128
f 51/131/129 69/128/130 70/127/131 59/132/132
s 4
f 51/159/133 52/160/134 76/158/135 69/157/136
s 5
f 60/113/137 75/110/138 76/109/139 52/114/140
s 2
f 72/150/141 73/149/142 50/151/143 49/152/144
s 6
f 53/129/145 64/126/146 65/125/147 47/130/148
f 63/135/149 71/134/150 72/133/151 49/136/152
s 3
f 49/191/153 50/192/154 68/190/155 63/189/156
s 5
f 73/119/157 74/118/158 68/117/159 50/120/160
f 66/112/161 67/111/162 56/115/163 48/116/164
s 1
f 65/182/165 66/181/166 48/183/167 47/184/168
s 6
f 59/132/132 70/127/131 71/134/150 63/135/149
f 65/125/147 64/126/146 58/122/126 57/121/125
s 1
f 57/180/108 62/179/107 66/181/166 65/182/165
s 5
f 62/108/124 61/107/123 67/111/162 66/112/161
f 68/117/159 74/118/158 75/110/138 60/113/137
s 3
f 63/189/156 68/190/155 60/186/114 59/185/113
s 6
f 70/127/131 69/128/130 54/123/127 58/122/126
s off
f 78/137/169 77/138/170 79/139/171 80/140/172
s 6
f 72/133/151 71/134/150 64/126/146 53/129/145
s 2
f 53/148/112 56/147/111 73/149/142 72/150/141
s 5
f 56/115/163 67/111/162 74/118/158 73/119/157
s off
f 82/141/173 81/142/174 83/143/175 84/144/176
s 5
f 76/109/139 75/110/138 61/107/123 55/106/122
s 4
f 69/157/136 76/158/135 55/154/118 54/153/117
s off
f 71/193/177 70/194/178 77/195/179 78/196/180
f 70/161/181 58/162/182 79/163/183 77/164/184
f 58/197/185 64/198/186 80/199/187 79/200/188
f 64/165/189 71/166/190 78/167/191 80/168/192
f 75/201/193 74/202/194 81/203/195 82/204/196
f 74/169/197 67/170/198 83/171/199 81/172/200
f 67/205/201 61/206/202 84/207/203 83/208/204
f 61/173/205 75/174/206 82/175/207 84/176/208
